<svg id="Capa_2" data-name="Capa 2" xmlns="http://www.w3.org/2000/svg" viewBox="0 0 701.86 816.62"><defs><style>.cls-1{fill:#fff;stroke:#fff;stroke-miterlimit:10;}</style></defs><path class="cls-1" d="M532.6,509.79l7.14-22.13a134,134,0,0,1-74.21-135.09L228.6,164.65c-3.51,9.11-13.82,39.29,0,69.39a76.78,76.78,0,0,0,11.91,18.39L345.7,327l1.37-34.38,95,71.49a162.53,162.53,0,0,0,90.56,145.7Z" transform="translate(-215.2 -163.84)"/><path class="cls-1" d="M216.34,261l128.94,86c.12,2.2.24,4.41.37,6.61q.83,15,1.67,29.9l-98-42.38A69.12,69.12,0,0,1,235.74,330C212.77,305.24,215.29,270.79,216.34,261Z" transform="translate(-215.2 -163.84)"/><path class="cls-1" d="M224.89,350.89l124.73,50.94,8.81,33.45L269.57,417.4a64.61,64.61,0,0,1-19.27-10.85C227,387.45,225.15,357.79,224.89,350.89Z" transform="translate(-215.2 -163.84)"/><path class="cls-1" d="M306.21,481.7l74.46-1.7L364.6,452.26,254.13,433.53c2.4,7.3,11.32,31.34,35.23,42.9A61,61,0,0,0,306.21,481.7Z" transform="translate(-215.2 -163.84)"/><path class="cls-1" d="M390.09,492.72,410,514l-48.89,15.32a55.26,55.26,0,0,1-23.11-.13c-24-5.36-36.1-25.56-38.55-29.87Z" transform="translate(-215.2 -163.84)"/><path class="cls-1" d="M422.26,524.51l22.21,12.89L410,558.09a50.81,50.81,0,0,1-20.55,3.31c-18.07-.89-30.08-11.47-33.71-14.93Z" transform="translate(-215.2 -163.84)"/><path class="cls-1" d="M458.38,543l16.73,8.33-24.39,20.17a34.49,34.49,0,0,1-33.7-.89Z" transform="translate(-215.2 -163.84)"/><path class="cls-1" d="M472.17,569.7l-16,9.7-7.83,27.07L327.49,711.83a40.62,40.62,0,0,0,34,12.43l98-107.24Z" transform="translate(-215.2 -163.84)"/><path class="cls-1" d="M452.77,643.74l6.46,18.56L406.3,741.11a54.49,54.49,0,0,1-34.73-7.83Z" transform="translate(-215.2 -163.84)"/><path class="cls-1" d="M468.77,672,482,684.77,454,745.19a41.1,41.1,0,0,1-18.73,4.09,40.66,40.66,0,0,1-15-3.24Z" transform="translate(-215.2 -163.84)"/><path class="cls-1" d="M491.23,695.49,506,706,498.64,735a38,38,0,0,1-28.34,8.17Q480.77,719.32,491.23,695.49Z" transform="translate(-215.2 -163.84)"/><path class="cls-1" d="M503.15,676.94,499.91,648a4.77,4.77,0,0,0-2.65-.74,4.71,4.71,0,0,0-2.45.74q-2,16.08-4.09,32.17L513,698.72l6.13,1.19a2.19,2.19,0,0,0,2-2.38Z" transform="translate(-215.2 -163.84)"/><path class="cls-1" d="M552.68,669.11q4.62-10.26,9.25-20.51l11-24.43a29.58,29.58,0,0,0-4.3,1.38,32.87,32.87,0,0,0-13.92,11.05,25.68,25.68,0,0,0-3.06,5.36,25.06,25.06,0,0,0-1.7,6,45.13,45.13,0,0,0,2.72,21.11Z" transform="translate(-215.2 -163.84)"/><path class="cls-1" d="M635.06,611.83c16.29-13.36,40.12-37.31,52.85-73.79A153.85,153.85,0,0,0,694,514.81l-17.1,11.74c-7.92,29-21.37,47.69-29.88,57.71-10.94,12.88-22.58,21.79-29.87,27.31a222.66,222.66,0,0,1-32.93,20.69,36,36,0,0,0-5,5.61,36.47,36.47,0,0,0-5.1,10.13c5.24-2.22,10.7-4.73,16.34-7.57,8.53-4.32,16.24-8.79,23.15-13.2a42.78,42.78,0,0,0-5.11,30.9Z" transform="translate(-215.2 -163.84)"/><path class="cls-1" d="M753.87,551.74a238.74,238.74,0,0,1-24.53-9.26c-3.85-1.69-7.53-3.44-11-5.2l-23.92,15.66,16.85,11.15a73.85,73.85,0,0,0,42.64-12.35Z" transform="translate(-215.2 -163.84)"/><path class="cls-1" d="M734.3,526.3,757,505.53l56.34,7.58c-4.53,5.57-18.74,21.61-38.3,22.63-8.87.47-19.37-2.13-22.25-2.84A99.92,99.92,0,0,1,734.3,526.3Z" transform="translate(-215.2 -163.84)"/><path class="cls-1" d="M788,465.28l76.68-8.85C861.42,463.14,852.15,480,834,488.6a72.15,72.15,0,0,1-18.14,5.55c-3.23.52-7.56,1-23.14.23-5.76-.27-13.47-.72-22.64-1.53Z" transform="translate(-215.2 -163.84)"/><path class="cls-1" d="M809.7,418l91.66-37c-4,11.94-16.38,45.07-39.06,54.64a175.45,175.45,0,0,1-17.75,6,238.63,238.63,0,0,1-29.74,6.13c-6.84,1.06-12.57,1.74-16.6,2.17Z" transform="translate(-215.2 -163.84)"/><path class="cls-1" d="M823.23,361.36l92.43-68.42c4.53,36.95-9.38,56.1-13.79,61.53-10,12.37-24,18.72-51.83,31.4-13.93,6.35-25.81,10.74-33.95,13.53Z" transform="translate(-215.2 -163.84)"/><path class="cls-1" d="M764,361.87l62-56.68-1.36,34.47C833.61,333,846.25,323.28,861,311c24.67-20.47,37.13-30.91,43.44-41.34,5.5-9.11,16.9-33,5-76.17L739.91,350.13a129.47,129.47,0,0,1-16.51,65.36,77,77,0,0,1,2.3,8.42,80.49,80.49,0,0,1,.51,30.39,186.31,186.31,0,0,0,17-26.23A189.67,189.67,0,0,0,764,361.87Z" transform="translate(-215.2 -163.84)"/><path class="cls-1" d="M617.45,318" transform="translate(-215.2 -163.84)"/><path class="cls-1" d="M548.38,399.91c-2.82,3-5.66,6.17-8.47,9.62a164.75,164.75,0,0,0-25.48,44q-5.56-4.65-11.11-9.32a178.47,178.47,0,0,1,33.83-55Z" transform="translate(-215.2 -163.84)"/><path class="cls-1" d="M552,407.49" transform="translate(-215.2 -163.84)"/><path class="cls-1" d="M578,367l12.09,13.62A86.85,86.85,0,0,1,628.6,374a87.76,87.76,0,0,1,46.12,16.51l11.92-11.75A107.46,107.46,0,0,0,578,367Z" transform="translate(-215.2 -163.84)"/><path class="cls-1" d="M721.7,355.4l-82,85.45-103-94.47a58.09,58.09,0,0,0,4.77,24.85,57.16,57.16,0,0,0,9.53,15l88.17,85.11,68.08-71.15A53.37,53.37,0,0,0,721.7,355.4Z" transform="translate(-215.2 -163.84)"/><path class="cls-1" d="M556.77,408.85l26.89,21.79c-6.66,11.23-3.22,25,6,30.64,7,4.32,16.67,3.61,24.17-1.88a140.55,140.55,0,0,1,28.08,43.07,56.44,56.44,0,0,0,13.28-33.53l8-7.15a21.45,21.45,0,0,0,22.3-3.07c7.25-6.21,9.31-17.2,4.59-26.38l18.9-17.7c.81,2.1,17.14,46.31-11.75,83.06-26.07,33.16-66.53,31.74-71.32,31.49-7.66-.4-37.54-3-58.62-27.6C546.34,477.21,542.39,441,556.77,408.85Z" transform="translate(-215.2 -163.84)"/><path class="cls-1" d="M604.68,753.53a24.2,24.2,0,0,0-6.38-16.34,23.38,23.38,0,0,0-10.73-6.38c.52.71,6.48,9.24,2.81,19.4-3.39,9.4-12.21,12.43-13.27,12.77.21-.8,4-16.22-6.39-26.55a25.8,25.8,0,0,0-16.08-7.15c-12.64-1-21,7.69-22.21,8.93a23.53,23.53,0,0,1,2.29-13.78A24.09,24.09,0,0,1,548,712.94l-17.36-22.73,16.08-13.27,23.49,33.7c15.82-4.42,31.6,2.62,37.28,15.06C613.57,739,605.36,752.45,604.68,753.53Z" transform="translate(-215.2 -163.84)"/><path class="cls-1" d="M637.11,745.62a41.45,41.45,0,0,0-11.41-27.15c-12.63-13-29.23-12.32-31.74-12.17a9.22,9.22,0,0,1,9.44-7.41l-18.89-19.66,15.58-12.51,22.46,28.77c1.94-.23,27.1-2.88,39.58,14.13a32.68,32.68,0,0,1,5.61,13l-22.21-6.13c.57,1.07,5.27,10.24.77,19.66A21.33,21.33,0,0,1,637.11,745.62Z" transform="translate(-215.2 -163.84)"/><path class="cls-1" d="M660.09,730.3a24,24,0,0,1-9.71,19l73.79,31.82-35.74,15.32-80.17-36a85.87,85.87,0,0,1-26.81,12.76l78.64,34.21-42.9,19.15L509.45,780.09l57.48-22.73c.19-.63,2.13-7.58-2.59-13.53a15.57,15.57,0,0,0-12.25-5.62l-79.92,34V917.62l145.15,62.29L762.47,918.3V773.45ZM605.7,950.64,493.36,903V797.45L605.7,845.7ZM741.28,903,627.91,950.64V845.7l42.9-17.1-1.28,39.06,32.68-13V815.06l39.07-15.32Z" transform="translate(-215.2 -163.84)"/><polygon class="cls-1" points="334.34 727.05 293.74 710.2 293.74 731.14 334.34 747.48 334.34 727.05"/></svg>