<svg xmlns="http://www.w3.org/2000/svg" viewBox="0 0 843.1 829.18"><defs><style>.cls-1{fill:#fff;}</style></defs><g id="Capa_3" data-name="Capa 3"><path class="cls-1" d="M638.64,604.52,920.5,332.2a259.51,259.51,0,0,0,67.94-179.86L566.93,555,145.42,152.34A260.42,260.42,0,0,0,213.36,332.2L495.55,604.52a341.21,341.21,0,0,1,71.38,109.41,324.38,324.38,0,0,1,71.71-109.41Z" transform="translate(-145.38 -152.34)"/><path class="cls-1" d="M811.16,244.25,747.7,304.59C726.18,289,656.31,242.74,556.94,246c-87.35,2.83-148.24,42.31-170.78,58.63l-63.47-60.34C348.39,223,430.12,161,551.81,156.18,692.16,150.66,787.94,225.11,811.16,244.25Z" transform="translate(-145.38 -152.34)"/><path class="cls-1" d="M967.9,580.55c0,221.45-179.52,401-401,401S166,802,166,580.55a399.43,399.43,0,0,1,40.82-176.49l125.75,122.2c-23.27,36.77-16.1,84.87,15.56,112.12,29.22,25.17,73.19,27.29,106,4.38A471.74,471.74,0,0,1,566.93,845.38,491.93,491.93,0,0,1,679.77,642.76c31.89,21.66,73.26,21.09,101.85-.55,33.8-25.59,43.61-76,19.71-116L927.06,404.07A399.13,399.13,0,0,1,967.9,580.55Z" transform="translate(-145.38 -152.34)"/></g></svg>