<?xml version="1.0" encoding="utf-8"?>
<svg width="945" height="1000" xmlns="http://www.w3.org/2000/svg" xmlns:bx="https://boxy-svg.com" viewBox="0 0 945 1000"><defs><bx:export><bx:file format="svg" path="logoV.svg"/></bx:export></defs><path stroke="#000" d="M485.5 137h7l.5.5V165h-8v-15.5l-1-1v-10l1.5-1.5ZM513.5 137q8.6.4 12.5 5.5l2 5.5-8 1-2.5-4-3-1-4.5 3.5-1 8 3.5 4.5q5.5 1 6.5-2.5l1.5-2.5 6.5 3.5-4.5 6.5q-2.9 2.6-9 2l-7-2-4.5-4.5-1-2v-11l3-6.5 9.5-4ZM467.5 138h7.5v7.5l1 1v8l2 10.5-8.5 1-11-13-.5 5.5 1 1v8.5h-8v-6.5l-1-1-1-16-1-3.5q2.4-1.7 8.5-1l11 13 .5-3.5-2-10 1.5-1.5ZM544 143l8.5 1 1.5 1.5 4 28.5-9-2v-5h-3.5l-5-2-2.5 4-9-1 15-25Zm4 9-5 8 5 1v-9ZM425.5 145q12.3-2.2 15.5 4.5.8 2.3-1.5 1.5l-5 3-6-3-3.5 2.5-1 4 3 8.5 5.5 1q4.5-1.4 3.5-7h8v4.5l-4.5 6.5q-4.3 3.2-12 3-5.7-1.2-8.5-5.5-4.1-4.4-3-14l5.5-7.5 4-2ZM394.5 146q3.4-.9 1.5 4.5l-1 3.5-2.5 1-.5-8 2.5-1ZM404.5 152l2.5 6-13 5.5 2.5 3.5 11-5 2.5 6-12 4 2.5 5 13.5-5 2 6-21.5 8-10.5-26 20.5-8ZM585 155l5.5 1 15.5 7-1 6-13.5-5-1.5 4 11 4-1 6-12.5-5-2.5 5 13 5.5-2.5 5.5-20.5-9.5 10-24.5ZM376.5 164l3.5 5.5-7 5 9 18-6.5 4.5-11-18-7 4-3.5-4.5V176l22.5-12ZM613.5 171h8l9.5 7.5 1 5-1 2.5-7-3.5q.8-4.7-2.5-5.5-4.8-1.7-3.5 2.5l8 8 1 7-3.5 4.5-9 1q-6.7-2.2-10.5-7.5l-1-7 1.5-2.5 6.5 3 1 7 4.5 1q2.3-.7 1.5-4.5l-7-7-1-8 3.5-3.5ZM346.5 182l3.5 2.5 13 20.5-6.5 4-15.5-21.5V185l5.5-3ZM640 184l4.5 2 16.5 13.5-3.5 5.5-7-5-13 16-6.5-5.5 12-16-6-4.5 3-6ZM414.5 189l6.5 5.5 6.5 7.5h133l2.5-2.5 9.5-10.5 7.5 6.5-28 31-5 7.5q7.8 2.6 13 9.5l7 12 3 15-3 15q-3.4 9.1-10 15l105 .5v189.5q-2.7 1.8-1 8-8.2 45.3-37.5 69.5-21.7 19.8-53 30l-19 5-16 3h-7l-1 1-40 1-1-1h-12l-1-1h-10l-1-1-25-2-32-8q-34.3-13.2-56.5-38.5-10.9-11.6-17-28l-7-23-2-18-1-1V301l107-.5q-7.5-6-11-16l-2-8v-12q3.8-18.2 16.5-27.5l7.5-4v-1.5l-32-36 6.5-6.5Zm17.5 21 2 5 55 61 6 4 62-69-125-1Zm12 29-9 6q-8 7-11 18v16l7 14q8 9 23 12 15 1 24-6l10-11-1-4-14-16-2 10-7 6q-9 1-12-2l-6-7q-1-9 3-12l8-5q4-1 6 1h1l-14-16q-1-5-6-4Zm98 0-18 20 2-1 10 1q5 2 6 9t-2 11q-3 4-8 5-8 1-11-3-6-3-5-13l-18 19 3 6q8 9 23 12 15 1 24-6 11-7 14-23 1-18-7-26-5-7-13-11Zm-105 67v64l20-9 26-5 28 1 14 3 21 8v-60l-10 4h-16l-15-6q-2 14-8 25 0 3-4 2l-7-9-4-16-1-2-15 6q-21 3-29-6Zm-107 3v183l4 19 6 18 12 20q19 23 49 36l17 6 18 4 12 1 1 1h9l1 1 20 1 1 1q90 5 136-35 14-12 24-28l10-23 4-19V309H554v62l-1 1 21 15q31 26 39 76v30l-4 19q-9 28-27 48-15 16-36 27l-25 9-18 2-1 1-27-1-24-6q-25-9-42-26-17-16-28-38l-7-20-3-17v-26l1-1 1-12 4-14q9-26 26-43l18-16 7-4v-66h-98Zm154 51-2 2 1 2h8v-4h-7Zm9 0v4h10l1 1 1-4-12-1Zm-18 1-2 2v2h7q2-6-5-4Zm32 0v4l8 1 1-2-1-2-8-1Zm-37 1-8 2 2 4 7-2-1-4Zm48 1-1 4 5 1q4 2 3-2l-7-3Zm-60 2-9 3 2 4 9-3q2-1 0-2 1-3-2-2Zm69 1-1 3 8 3h1v-4l-8-2Zm-40 1-4 1v5h8v-6h-4Zm6 0q-1 5 2 6h9v-5l-11-1Zm-16 1-3 1q-1 4 2 5l5-1v-5h-4Zm31 0q-3 1-2 6l7 1q2-1 1-6l-6-1Zm-61 1-8 5 1 2 8-3-1-4Zm24 0-7 2 1 5 7-1q2-1 0-2 1-5-1-4Zm45 1v5l6 2 1-4-7-3Zm21 0v3l8 4q2 1 1-3-3-4-9-4Zm-77 2-8 4 3 4 8-3-1-3q1-3-2-2Zm65 1-1 5 7 2 2-5-8-2Zm-88 1q-3 5 1 4l-1-4Zm12 2-7 4 4 4 5-3-1-3q1-3-1-2Zm87 0-3 5 9 4 2-4-8-5Zm18 2v4q-1 2 2 1l1-4-3-1Zm-76 1-10 2-17 6-13 8-2 1v9l45-25-3-1Zm27 0 1 2 40 23v-9l-6-5-16-7-19-4Zm-78 1-5 4 2 3 4-3q1-5-1-4Zm12 1-3 1q-1 5 2 6l5-3-1-2-3-2Zm53 1-3 1-5 6 1 6 7 4 6-2 2-3-1-8-7-4Zm66 0-1 3 7 3 1-2-4-4h-3Zm-12 1-2 3q-1 2 2 1v-4Zm-126 2-9 8 2 2h2l6-6-1-4Zm136 2-3 5 5 3q3-1 2-5l-4-3Zm-128 1-2 3 2 1v-4Zm139 0-2 3 7 4 1-2-4-5h-2Zm-143 3-8 7 4 4 7-6-2-3q1-3-1-2Zm139 2-4 4 6 5 3-4-5-5Zm-154 2-6 7 4 1 4-6-2-2Zm166 0-2 2 4 6 4 3 2-2-2-3-6-6Zm-161 5-5 6 4 3 5-5-4-4Zm140 0q1 2 0 9l15 8h1l-1-2-15-15Zm16 0-3 3v2l7 6 3-2-2-4-5-5Zm-142 2-12 13-2 3 14-8v-8Zm-26 1-3 4q-4 2 1 4l4-6-2-2Zm54 2-5 1-9 15-1 2q10-11 28-16l1-2-3 1h-10l-1-1Zm58 0v1l17 7 11 8 2 2-9-16-1-2h-20Zm71 0-3 3 5 6 2-1-4-8Zm-178 3-4 5q1 3 5 2l3-4q0-3-4-3Zm74 0q-2 6 4 4 2-6-4-4Zm5 0v3l3 1h2v-4h-5Zm7 0v4h3q3 1 4-1v-3h-7Zm8 0v4l4 1h1v-4l-5-1Zm-24 1-3 1 2 4 3-1q2-1 0-2 1-3-2-2Zm32 1-2 3 4 1 1-2q1-4-3-2Zm70 0-4 3 5 6 3-2-3-5q1-3-1-2Zm-183 1-4 6q-3 1 2 3l5-7-3-2Zm74 0-1 1h-2v4l6-2q1-5-3-3Zm43 0v4l4 1 1-4-5-1Zm-48 2-5 3 1 2 5-1-1-4Zm54 1-1 3 6 2 1-2-6-3Zm72 0-3 3 4 5 3-1-4-7Zm-189 1-5 7 5 2 4-6-4-3Zm57 1-2 1q-4 2 1 4l2-1-1-4Zm26 0-3 1 2 3 2-1-1-3Zm2 0q-2 5 4 3 2-5-4-3Zm6 0v3h6v-1q-1-3-6-2Zm-13 1-4 2 2 2 3-1-1-3Zm20 0q-2 5 4 3 2-5-4-3Zm28 0-3 3q1 2 5 2l1-3-3-2Zm-22 1q-1 5 3 3 2-4-3-3Zm79 0-4 2 2 6 5-1v-2l-3-5Zm-131 1-4 2 3 4 3-3-2-3Zm19 0-1 1q-3-1-2 3l5-1q2-4-2-3Zm39 0-2 3 4 1 1-3-3-1Zm-121 1-6 10 4 1 4-10-2-1Zm77 1-2 1q-3 2 0 3l3-1-1-3Zm49 0-1 3 4 2 1-3-4-2Zm16 0-2 3q3 5 5 0l-3-3Zm-84 2-3 3q-3-1-2 3l3 1 4-4-2-3Zm146 0-2 2 3 7 3-1-2-6-2-2Zm-198 1q-4 3-5 9l4 2 4-7v-3l-3-1Zm65 0-2 3q2 3 4-1l-2-2Zm76 0-3 4 4 2 2-2-3-4Zm-52 1-2 2q-1 2 3 1l-1-3Zm2 0q-1 5 3 3 2-4-3-3Zm5 0v3q4 1 5-1v-2h-5Zm29 0 3 4 1-2-4-2Zm-106 1-4 2-4 7 2 5 6 3 5-1 4-5-1-6q-2-5-8-5Zm43 0-4 3 2 2 3-2-1-3Zm22 0-2 2q-1 2 3 1 1-4-1-3Zm18 0v2l3 1 1-2-4-1Zm90 0-4 3 4 6 4-1-3-6q1-3-1-2Zm-112 1-4 1 2 3 3-1-1-3Zm27 0v2q2 3 3 0t-3-2Zm4 1q-1 5 3 3 2-4-3-3Zm20 0q-4 2 1 4l1-2-2-2Zm38 0-2 1-4 7 1 4 6 4 6-1 4-5-2-7q-2-4-9-3Zm-125 1-2 4 3 2 3-3-4-3Zm101 0-2 2q0 4 4 5l2-1-1-3-3-3Zm-88 1-2 1q-5 2-1 4l4-2-1-3Zm15 0v3l3-1q1-3-3-2Zm43 0v2l4 2 1-3-5-1Zm-23 1-6 1 1 14 1 1v8l1 1v5h12l4-29-13-1Zm43 0q-4 2 1 4l2-1-3-3Zm-147 1-4 7q-1 4 4 2l2-8-2-1Zm80 0v3l3-1q1-3-3-2Zm54 0-2 3 3 1 1-3-2-1Zm80 1-2 2 3 8 4 1-3-9q1-3-2-2Zm-161 1-2 4 3 1 1-3-2-2Zm25 0-2 3q2 3 3 0 1-4-1-3Zm13 0-11 6q-12 8-17 23l1 2 1-1h20l1-1h6v-9l1-1v-18l-2-1Zm30 0 1 3v25l6 1h18l5 1-6-13q-8-13-24-17Zm-116 1-2 8 5 1 2-8-5-1Zm58 0q-5 2-1 4l3-2-2-2Zm75 0-2 3 4-1-2-2Zm13 0-2 2 4 3q3 1 2-1l-4-4Zm56 1-3 2 5 9 3-1-2-8-3-2Zm-133 1-3 4 2 1 3-3-2-2Zm67 1q-4 2 1 4l1-2-2-2Zm-81 1q-5 2-1 4l2-1-1-3Zm-44 1-5 12-3 16v20q3 1 1 7l6 20h1v-75Zm36 0-2 2h2v-2Zm104 0-2 3q2 4 4 1l-2-4Zm43 0v75l3-7 4-19v-22q-2-2-1-7l-4-15-2-5Zm-129 1q-5 2-1 4l2-1-1-3Zm75 0-2 3 4 2 1-1-3-4Zm-149 2-3 6v1h4l1-2q2-6-2-5Zm61 0-3 4 3 1 1-2-1-3Zm-54 2-3 6q1 2 5 1l2-6-4-1Zm64 0-2 2q-1 2 3 1l-1-3Zm92 0-2 3 4 1-1-2q1-3-1-2Zm-10 1-2 3 3 1q3-2-1-4Zm20 0v2l-1 3h3l-1-3q1-3-1-2Zm48 0 1 9 4-1-1-6-4-2Zm-163 2-3 4q-1 4 3 2l1-2-1-4Zm10 0-2 3q-1 2 3 1l1-3-2-1Zm146 0-2 2 1 5q1 2 6 1l-1-6q-1-3-4-2Zm-58 2-2 2q-1 2 3 1l-1-3Zm9 0-1 3h1v-3Zm-169 2-1 6q-2 5 4 3l1-7-4-2Zm51 0-2 4 2 1v-5Zm128 0-2 2 1 5 4-1-1-4-2-2Zm-111 1-1 4 4-1q1-5-3-3Zm-61 1-1 8q5 1 6-1v-7h-5Zm153 0 2 4 1-2-3-2Zm-100 1-2 4h2v-4Zm170 1-3 1 1 7h4q-2-2-1-6l-1-2Zm-182 2-1 3v1h4q2-6-3-4Zm18 0-1 3 3 1 1-2-3-2Zm98 0-2 1v2q-1 4 3 2l-1-5Zm56 0q-3 1-1 3v4h5v-7h-4Zm-31 1v11l1 1v13l-2 8 1 3 10-18-10-18Zm-10 1 1 4q-1 2 3 1 2-1 0-2 1-5-4-3Zm-137 1-10 16v3l9 16 2 1-3-15 1-17 1-1v-3Zm-43 2-1 3v9h4v-11l-3-1Zm49 0-2 3 2 3h2v-5l-2-1Zm18 0-2 2q-1 2 3 1 1-4-1-3Zm-60 1-1 3v8h5l1-5q3-9-5-6Zm159 0q-3 1-1 3-1 2 2 1v-4h-1Zm17 2q-3 1-1 3-1 2 3 1 2-5-2-4Zm46 0 1 6q-1 5 3 3v-9h-4Zm-163 1-2 3 3 1v-4h-1Zm45 0-2 1-2 2v15l3 2h13l2-2v-15l-2-3h-12Zm110 0v8h5v-8h-5Zm-149 2-2 2v14l2 2 27-5h2v-6l-1-2-28-5Zm93 0q-1 5 3 3 2-4-3-3Zm-118 1-1 3q-2 6 4 4v-7h-3Zm108 0-21 4-2 1v7l23 4h7v-16h-7Zm-91 2v5l3-1q2-6-3-4Zm118 0q-2 7 4 5 2-7-4-5Zm-16 1v4h2q2-1 0-2 1-3-2-2Zm-167 4v9h4l-1-6q1-5-3-3Zm7 0v8h5v-8h-5Zm215 0v11h5v-11h-5Zm9 0v7l-1 1q-2 6 4 4v-11l-3-1Zm-184 1q-2 7 4 5 2-7-4-5Zm18 0v4h2l1-2-3-2Zm102 0v5h2l1-3-3-2Zm16 0v7h4v-7h-4Zm-118 5q-1 5 3 3 2-4-3-3Zm-14 1-3 1q-2 6 4 4 1-4-1-5Zm115 0v4q4 2 3-2l-3-2Zm18 2q-3 1-2 5l3 1q2-1 1-4l-2-2Zm-175 1-2 2 3 6 3-1v-7h-4Zm57 0v4h2l1-2-3-2Zm-66 1 1 8 4-1-1-3q2-6-4-4Zm165 1q-1 5 3 3 2-4-3-3Zm-116 1v5q6 2 4-3l-4-2Zm172 0-1 8 5 1 1-2v-7h-5Zm-64 1-1 1h-23l-2 2v27h3l11-6q11-8 16-22 1-4-4-2Zm73 0-1 9 4-1v-8h-3Zm-163 1 2 5 2-1-1-2q1-4-3-2Zm7 0 1 6 5 8q8 11 23 15l-1-4v-23l-1-2h-27Zm90 1-1 3 3 1 1-2-3-2Zm17 0v4l4-1q1-5-4-3Zm-60 1-1 1h-8l-1 4-1 21-1 3 6 1 10-1-2-21q-2-2-1-6l-1-2Zm-110 2-2 2 1 7 5-1-1-5q1-5-3-3Zm42 0-3 2 2 5 4-1-2-3q1-4-1-3Zm-48 1-3 1 1 9 4-1-2-9Zm66 0-2 3 3 1q2-1 0-2 1-3-1-2Zm91 1-1 3q-1 2 3 1l1-2q1-4-3-2Zm19 0q-3 1-2 5l4-1q2-5-2-4Zm38 2-1 6 5 2 2-6-6-2Zm-147 2v3l3-1-3-2Zm156 0-1 7 3 1 2-6v-2h-4Zm-69 1 2 4 1-2q1-3-3-2Zm-106 1 3 5 2-1-1-2v-2h-4Zm124 0-2 5 4 2 2-5-4-2Zm-101 1-2 3q2 3 3 0l-1-3Zm-62 1-3 1 3 10 5-2-2-7-3-2Zm144 1-2 2 3 1q1-4-1-3Zm-152 1-2 2 5 10 2-1-3-8q1-4-2-3Zm53 1-3 1 1 4 4-1-2-4Zm19 0-2 2 4 3 1-2-3-3Zm139 0-2 7 5 1 2-4v-4h-5Zm-62 1-2 3q2 3 4-1l-2-2Zm-116 1-2 1-4 5 1 7 5 3 7-1 3-4-1-7q-2-5-9-4Zm136 0-3 4 4 1 1-3-2-2Zm50 0-2 8 4 1 2-7-4-2Zm-33 1-3 1-5 7 2 6 7 3 5-2 3-5-1-5q-2-5-8-5Zm-109 1-2 3 3 1q3-2-1-4Zm69 0q-4 1-3 5l4-2-1-3Zm-91 1-2 2 2 4 2-1q2 1 1-2l-3-3Zm109 2-1 4 3 1 2-4-4-1Zm-150 1-5 3 4 6 4-1-3-8Zm65 0v2q2 3 3 0 1-4-3-2Zm62 0-2 4 3-1q1-4-1-3Zm68 1-5 9 5 2 4-8-4-3Zm-150 1-2 2 3 5 4-2-5-5Zm25 0q-4 2 1 4l1-2-2-2Zm53 1-2 2 3 1q1-4-1-3Zm25 0-3 3 2 3 3-2-2-4Zm-159 1 4 9 2-1-2-6-4-2Zm85 0-1 3h4l-3-3Zm129 0-5 11 3 1 4-11-2-1Zm-84 1-2 3 4-1-2-2Zm-40 2v1h2l-2-1Zm35 0-3 2h5q1-3-2-2Zm-63 1-2 3 4 2 1-2-3-3Zm92 0-4 4 2 3 5-4-3-3Zm-35 1v1h2l-2-1Zm-105 1-3 1 4 7 3-2q1-3-2-4 1-3-2-2Zm53 2-3 3 3 1q1 3 3-1l-3-3Zm9 0v1h2l-2-1Zm123 0-3 7 4 2 4-6-5-3Zm-120 1v2l5 2v-3l-5-1Zm69 0-3 3 2 3 3-2-1-2q1-3-1-2Zm-142 1-2 2 3 5q2 3 4-1l-2-4-3-2Zm50 0 11 19h20q-19-6-31-19Zm16 1-3 4 5 2 1-4-3-2Zm15 0-2 3 4 1 1-3-3-1Zm45 0 1 2 2-1-3-1Zm-5 1-2 3 6-1q-1-3-4-2Zm81 0-5 8 3 1 4-8-2-1Zm-188 1-4 3 4 6 4-2-4-7Zm71 0v3l4-1-4-2Zm32 0-4 1 2 3 3-1-1-3Zm19 0-2 2 2 3 2-1q2-1 0-2 1-3-2-2Zm15 0q-10 9-23 14-4-1-3 2l3-1h16l8-13q1-3-1-2Zm-61 1q-2 5 4 3 2-5-4-3Zm21 0-3 2 4 1q1-4-1-3Zm-40 1-2 3 6 2 1-2-5-3Zm26 0-2 2q1 2 6 1 2-5-4-3Zm6 0q-2 5 4 3 2-5-4-3Zm-79 1 2 5q22 26 63 34h2l-67-39Zm107 0-3 1 2 4 3-2q2 1 1-1l-3-2Zm58 0-4 5v2l4 2 3-4v-3l-3-2Zm-10 1-63 36-1 2q31-5 51-22l14-15-1-1Zm-173 1-3 2 4 6q2 3 4-1l-3-5-2-2Zm71 0-1 3 5 2 1-4-5-1Zm49 0-3 1-2 4 6-1q2-1 0-2 1-3-1-2Zm-43 2v2q-2 1 1 2 4 2 3-2l-4-2Zm36 0-1 1q-5-1-3 4l5-1-1-4Zm-99 1-4 2v3l5 6 2 1 3-3-6-9Zm70 0-2 4 5 1v-4l-3-1Zm106 0-5 7 4 1 3-4-2-4Zm-101 1-1 4h7v-3h-1l-5-1Zm8 0q-2 6 5 4 2-6-5-4Zm6 0q-2 6 4 4 2-1 0-2v-2h-4Zm74 2-5 5 4 4 5-6q0-3-4-3Zm-171 3-2 2 8 9 2-3-8-8Zm178 2-3 4q-6 2 0 5l5-7-2-2Zm-162 2q-3 1-3 5l6 4q2 0 2-4l-5-5Zm148 0-7 7q0 3 3 4l8-7-4-4Zm-75 4-5 2-2 4q-1 8 5 10 9 2 11-4l-1-8q-2-4-8-4Zm-79 2-3 3 8 5 1-2-6-6Zm161 0-9 8 2 2 3-1 6-6-2-3Zm-147 1-4 4 6 4 2-4-4-4Zm131 1-7 6 2 3q5 0 7-4l-2-5Zm-124 4-3 5 7 3 2-3-6-5Zm-13 2-2 3 6 4 1-3q-1-4-5-4Zm129 0-6 4 3 4 5-3-2-5Zm13 1-7 6 1 2 8-4-2-4Zm-120 2-3 5 8 4h2l1-5q-5 0-8-4Zm-14 2-2 4 7 4 2-4-7-4Zm112 0-6 2 1 5q5 1 8-3l-1-2-2-2Zm12 3-5 4 2 2 6-3-1-1q1-3-2-2Zm-99 1-3 4 8 3q2-1 1-5l-6-2Zm78 0-9 3 1 5 10-3-1-3q1-3-1-2Zm-95 2-1 3 11 5 1-2-11-6Zm27 1-3 5 7 2 1-6-5-1Zm82 0-8 5 2 2 7-3-1-4Zm-27 1-6 1 2 6 7-2-1-3q1-3-2-2Zm-48 1-1 5 2 1q4-1 6 1 2-1 1-6l-8-1Zm37 1-4 1 1 5 7-1-1-2q1-5-3-3Zm-27 1v5l11 1v-6h-11Zm13 0v6l9-1-1-2v-3h-8Zm-45 1v3l8 3 1-4-9-2Zm86 0-10 3 1 4 9-3q3 1 2-2l-2-2Zm-74 3-2 4 7 2 1-4-6-2Zm61 1-7 2 1 4 6-2q3 1 2-2l-2-2Zm-53 2v3l2 1q4-1 6 1h1v-4l-9-1Zm11 1v4l6 1h6v-4q-8 1-12-1Zm25 0v4l8-1v-3h-8Zm-11 1v4h8l1-1v-3h-9ZM322.5 200l3.5 1.5 10 13.5 11.5-8q4 .5 3.5 5.5L334.5 226 317 205.5l5.5-5.5ZM669.5 209h2l6.5 6.5-12.5 26.5-5.5-5.5v-2l1-3-6.5-6.5-1 1-3 1-5.5-7h2.5l22-11Zm-1.5 9-7 3 4 5 4-7-1-1ZM307.5 216q11.7-.7 15.5 6.5 3.8 3.2 3 11l-6.5 9.5q-3.2 3.8-11 3-7.2-1.8-10.5-7.5-3.2-3.3-2-11l7.5-9.5 4-2Zm.5 8-3 1-1 3 1 6 6 4h4q4-1 3-7l-6-7h-4ZM685.5 225l3.5 1.5 14 18-5.5 4.5-5-6-17.5 12-4-6.5 15-13-4-7 3.5-3.5ZM284.5 242q9.4-1.3 11.5 4.5l1 6-5 8 8 5.5-4.5 7h-2L273 259l2-5.5 9.5-11.5Zm1.5 8q-3 1-3 5l5 2 1-5-3-2ZM705.5 256q5.3-1.2 6.5 1.5l3 6-17.5 23.5q-3.8-2.7-4.5-8.5l2-4-4.5-6.5-4 1-4.5-5.5V261l23.5-5Zm-2.5 8-6 3 3 4 5-6-2-1ZM722.5 279l2.5 1.5 2 6.5-18 8.5 5 12.5-5.5 2-9.5-19.5 23.5-11.5ZM262.5 283q12.4-.4 17.5 6.5 2.8 2.7 2 9l-7.5 15.5-24.5-11 6-14.5 4.5-4.5 2-1Zm2.5 8-2 1q-4 1-3 6l13 5 2-4-1-3-9-5ZM270.5 317q4.6-1.4 2.5 4.5l-2.5 4.5q-5.9-2.1-4.5 2.5l-2 7.5 4 2.5-3.5 7.5-22.5-17.5 2-9.5 25.5-1 1-1Zm-18.5 9q0 4 7 5l1-3v-2h-8ZM740.5 321l1.5 1.5 3 12v6l-4.5 6.5q-4.8 4.2-15 3l-5.5-3.5-3-6-3-12 26.5-7.5Zm-3.5 10-12 3-2 2 1 4 4 2 8-2 2-2q1-6-1-7ZM243.5 345q14-2 18.5 5.5l1 2v11l-2 8.5-12.5-1-14.5-3 2-15.5 3.5-5.5 4-2Zm3.5 8-2 1-4 6 2 1 11 1 2 1 1-5-3-4-7-1ZM743.5 355h5.5v2.5l1 1v8l2 11.5h-5.5l-.5-1.5-2-12.5-4 1.5 1 12.5q-4.6 1.3-6-1.5 1.2-7.7-1.5-11.5l-4.5 1 1 12.5 1 1q-1.6 3-7 1.5l-2-23 20.5-2 1-1ZM233 378h8.5l1 1h16l2.5 1-1 8-26.5-1-1.5-1.5 1-1V378Z"/><path fill="#000" stroke="#000" d="M489.5 384q6.5-1 8.5 2.5l1 6-2.5 3.5-7 1q-4.1-1.9-4.5-7.5l4.5-5.5Zm2.5 1-2 1q-4 1-3 7l5 3q5 1 5-3l-1-7-4-1ZM725.5 387h26l.5.5v8.5h-21v13h-5.5l-1.5-1.5v-19l1.5-1.5ZM248.5 394q8.6-1.1 10.5 4.5l2 6v6l-3.5 6.5-6.5 2v-7.5l1.5-1.5 2.5-1.5q1-5.5-2.5-6.5l-2.5 1-2 9.5-4.5 5.5-4 1-5.5-3.5q-3.7-4.3-2-14l4.5-5.5 3-1 1.5 7.5-3 1.5-1 4.5q2 4.5 4 1l2-10 3.5-4.5 2-1ZM260.5 421l1.5 9.5-9 8q-1.3 4.2 3.5 2.5l1-1h6.5l1 8-26.5 5-1.5-2.5v-6l-2-6v-7l2.5-3.5 6-2 5.5 3.5.5 1.5 4-5 7-5ZM242 435l-1 3 1 5 5-1-1-5-4-2ZM414.5 428q7.3-1.2 8.5 3.5 1.5 8-3.5 9.5-7 1.5-8.5-2.5l-1-6 2.5-3.5 2-1Zm1.5 1-2 1-3 5 1 3 4 2 4-1 2-3-1-4-5-3ZM566.5 429q5.8-.8 7.5 2.5l1 7-6.5 4.5-6.5-4.5q-1-6.5 2.5-8.5l2-1Zm.5 2-4 5 1 3q1 3 7 2l3-4-1-5-6-1ZM728.5 429q14-2 18.5 5.5l2 8-2 8-4.5 4.5-5.5 1v-8h2.5q3.1-1.4 2.5-6.5l-3.5-3.5-9-1q-3.2 1.8-3.5 6.5l4 4v2l-2 4.5-6-2q-3.7-3.4-2-13.5l4.5-7.5 4-2ZM263.5 454q4.8-1.7 3.5 2.5l6 19-1.5 1.5-24 7-1.5-1.5-6-20 5.5-2.5 4.5 14 4-1-4-12.5 5.5-2.5 5 13 3.5-1-3-15 2.5-1ZM717 456l3.5 1 20.5 16-3 10-29.5 1 .5-1.5 2-7.5h5v-1.5l3-7-4-3 2-7.5Zm8 14-2 6h9l-7-6ZM706 488h2.5l22.5 11.5-7 16-3.5 3.5-4 1-6.5-4.5-1.5-5.5-3 2H695l4.5-9h11l2.5-2.5-10-4.5 3-8Zm11 15-1 7 3 1q3-2 3-7l-5-1ZM269.5 489h9l1.5 1.5 2 8-19.5 19.5H261l-3-7.5 14-13-7.5-.5-11 2-4.5-7.5 6.5-1.5h13l1-1ZM287.5 511l3.5 1.5 3 5-18.5 11.5-6 2-3.5-6.5 21.5-13.5ZM695.5 518q11 1 15.5 8.5l2 7q-1.5 7.5-6.5 11.5-3.1 3.6-10.5 2l2.5-7q4.8-.2 6.5-3.5v-4l-4.5-4.5-6-2-3.5 2.5-1 4 2 4-5.5 4.5q-5-2.5-3.5-11.5l8.5-10.5 4-1ZM296.5 524q2.3-.7 1.5 1.5l4 6-6 15 1.5.5 11.5-8 4 6.5-22.5 16.5q-3.8-2.7-4.5-8.5l5-14-1.5.5-10 7-4.5-6.5 21.5-16.5ZM675.5 541l4 2 16.5 15.5-4 6.5-8.5-6-5.5 6.5 7 7-5.5 5.5-20.5-17.5 4.5-6.5 9 7 5.5-7.5-8-7 5.5-5.5ZM313.5 555h8l6.5 5.5q4 3 4 10l-4 7.5h-1.5l-11 11-5.5-6.5 14-15-3.5-4.5h-4l-13 13-5.5-6.5 15.5-14.5ZM652.5 565l5.5 4.5 14 16-6.5 5.5-18.5-20.5 5.5-5.5ZM205.5 594q12.2-1.7 15.5 5.5l2 4V626h537.5l.5-.5v-22l5.5-7.5q3.7-3.3 12-2l97 23 17 11 4.5 4.5 7 39 1 16q-5.4 6.1-7 16 1.3 4.7-1 6v26l4 21 4 10v8l-2 8-4 36-3 8-2.5 2.5-21 11-93 22h-9l-7.5-5.5-2-4v-20l-1.5-1.5h-535l-1.5 1.5v20l-6.5 8.5q-3.8 2.7-12 1l-93-22-19-10-5.5-5.5-2-7v-7l-2-8-4-36 4-9 4-20v-29l-3-13-5-9v-7l2-7v-6l2-7 3-24 5.5-7.5 17-11 97-23Zm2.5 9-93 22-19 11-2 8-5 38-1 1 6 14 2 10v8l1 1v15l-1 1-1 15-3 13-4 10 1 1v7l2 8v7l1 1 3 26 19 11 29 6 13 4h4l13 4h4l13 4h4l13 4q6 1 7-2v-28l1-1h555v29l3 2h5l13-4h4l51-13 25-5 15-8 4-6v-7l3-15 2-22 1-1-6-21-1-11-1-1v-13l-1-1 2-23q2-11 7-17l-7-47-14-11-5-2-8-1-85-21-6 1-1 3v28H214v-28l-1-2q-1-3-5-2Z"/><path fill="#000" stroke="#000" d="M339 664h131.5q10.3 2.7 16.5 9.5l7 12 1 5v31q-2.9 13.6-12.5 20.5l-7 4-8 2H390v39h-51V664Zm51 34v22h52v-22h-52ZM154 665h51v90h55v-90h51v94.5l-4 13-9.5 10.5-11 5h-108q-10.3-2.7-16.5-9.5-6-6-8-16V665ZM517 665h137.5l.5.5V698h-86.5l-1.5 1.5v13l1.5 1.5h86l.5.5V739h-87.5l-.5.5V754h88v33H517V665ZM831.5 665l1.5 1.5V699h-99v53h97.5l1.5 1.5v31l-1.5 1.5h-117q-16.7-3.3-25.5-14.5-4.7-4.8-6-13v-66q3.2-13.3 13.5-19.5 6.4-5.1 16-7h118l1-1Z"/></svg>