<svg version="1.1" xmlns="http://www.w3.org/2000/svg" viewBox="0 0 709 436" preserveAspectRatio="xMidYMid meet" xmlns:xlink="http://www.w3.org/1999/xlink" xmlns:svgjs="http://svgjs.dev/svgjs">
<path d="M0 0 C0.33 0.66 0.66 1.32 1 2 C9.745 5.038 19.696 4.207 28.813 4.089 C31.612 4.054 34.411 4.034 37.211 4.017 C45.162 3.969 53.112 3.897 61.062 3.808 C65.944 3.755 70.826 3.72 75.708 3.698 C77.565 3.686 79.421 3.666 81.277 3.638 C83.862 3.6 86.446 3.586 89.031 3.578 C90.181 3.551 90.181 3.551 91.355 3.525 C96.512 3.544 96.512 3.544 99.018 5.886 C100 8 100 8 99.688 10.25 C99.347 11.116 99.347 11.116 99 12 C99.66 12 100.32 12 101 12 C101 12.66 101 13.32 101 14 C101.677 13.999 102.354 13.998 103.051 13.997 C119.58 13.975 136.108 13.959 152.637 13.948 C160.631 13.943 168.624 13.936 176.617 13.925 C183.591 13.915 190.565 13.908 197.538 13.906 C201.225 13.905 204.911 13.902 208.598 13.894 C212.731 13.886 216.863 13.886 220.996 13.886 C222.795 13.881 222.795 13.881 224.63 13.876 C233.128 13.886 241.53 14.348 250 15 C249.99 14.108 249.981 13.217 249.971 12.298 C249.875 3.375 249.875 3.375 251 0 C257.839 -1.447 264.82 -1.074 271.777 -0.949 C272.984 -0.93 274.192 -0.911 275.435 -0.892 C277.973 -0.85 280.51 -0.806 283.047 -0.758 C286.949 -0.687 290.85 -0.633 294.752 -0.58 C297.219 -0.537 299.686 -0.494 302.152 -0.449 C303.912 -0.427 303.912 -0.427 305.706 -0.405 C307.319 -0.37 307.319 -0.37 308.965 -0.335 C309.915 -0.318 310.866 -0.302 311.846 -0.285 C312.557 -0.191 313.267 -0.097 314 0 C315.284 2.568 315.129 4.393 315.134 7.27 C315.138 8.387 315.142 9.505 315.147 10.656 C315.146 11.888 315.146 13.119 315.145 14.388 C315.15 16.327 315.15 16.327 315.155 18.306 C315.164 21.857 315.167 25.409 315.167 28.961 C315.168 31.923 315.172 34.885 315.175 37.848 C315.184 44.835 315.186 51.822 315.185 58.81 C315.185 66.024 315.195 73.238 315.211 80.452 C315.224 86.641 315.229 92.829 315.229 99.018 C315.229 102.716 315.231 106.414 315.242 110.113 C315.253 114.236 315.249 118.359 315.243 122.482 C315.249 123.712 315.254 124.942 315.26 126.209 C315.254 127.889 315.254 127.889 315.247 129.604 C315.248 130.579 315.248 131.554 315.249 132.559 C315 135 315 135 313 138 C308.196 139.262 303.314 139.142 298.38 139.129 C297.113 139.132 297.113 139.132 295.821 139.135 C293.043 139.139 290.266 139.136 287.488 139.133 C285.553 139.133 283.619 139.134 281.684 139.136 C277.636 139.137 273.589 139.135 269.542 139.13 C264.35 139.125 259.158 139.128 253.966 139.134 C249.974 139.138 245.982 139.136 241.991 139.134 C240.076 139.133 238.161 139.134 236.246 139.136 C233.574 139.139 230.903 139.135 228.232 139.129 C227.438 139.131 226.645 139.133 225.828 139.136 C222.62 139.123 220.066 139.022 217 138 C216.67 138.66 216.34 139.32 216 140 C216 139.34 216 138.68 216 138 C211.688 137.942 207.375 137.906 203.062 137.875 C201.831 137.858 200.599 137.841 199.33 137.824 C198.16 137.818 196.99 137.811 195.785 137.805 C194.159 137.789 194.159 137.789 192.5 137.773 C191.675 137.848 190.85 137.923 190 138 C189.67 138.66 189.34 139.32 189 140 C189 139.34 189 138.68 189 138 C187.188 137.946 185.375 137.907 183.562 137.875 C182.553 137.852 181.544 137.829 180.504 137.805 C179.678 137.869 178.851 137.934 178 138 C177.67 138.66 177.34 139.32 177 140 C177 139.34 177 138.68 177 138 C172.906 138.118 168.813 138.242 164.72 138.372 C163.327 138.416 161.934 138.457 160.541 138.497 C158.54 138.555 156.54 138.619 154.539 138.684 C153.335 138.72 152.13 138.757 150.889 138.795 C148.06 138.811 148.06 138.811 146 140 C146 139.34 146 138.68 146 138 C145.195 138.03 144.391 138.061 143.561 138.092 C126.109 138.733 108.688 139.11 91.223 139.033 C70.168 138.948 49.114 138.889 28.06 139.214 C27.355 139.225 26.65 139.236 25.924 139.247 C22.979 139.293 20.034 139.339 17.089 139.385 C-37.898 140.241 -92.891 140.154 -147.883 140.129 C-158.378 140.125 -168.873 140.126 -179.369 140.13 C-191.811 140.136 -204.253 140.138 -216.695 140.135 C-223.19 140.133 -229.686 140.133 -236.181 140.136 C-261.759 140.148 -287.327 140.048 -312.9 139.554 C-313.97 139.535 -315.039 139.515 -316.141 139.495 C-319.117 139.44 -322.093 139.377 -325.069 139.312 C-325.951 139.295 -326.833 139.279 -327.742 139.262 C-333.769 139.116 -333.769 139.116 -336 138 C-336.265 135.896 -336.265 135.896 -336.285 133.065 C-336.298 131.997 -336.31 130.928 -336.323 129.827 C-336.327 128.645 -336.331 127.462 -336.335 126.244 C-336.352 124.388 -336.352 124.388 -336.37 122.495 C-336.4 119.092 -336.421 115.689 -336.438 112.287 C-336.457 108.733 -336.487 105.179 -336.515 101.626 C-336.561 95.657 -336.6 89.688 -336.633 83.719 C-336.672 76.809 -336.721 69.899 -336.776 62.989 C-336.829 56.354 -336.877 49.718 -336.921 43.083 C-336.939 40.254 -336.96 37.424 -336.982 34.595 C-337.012 30.649 -337.033 26.702 -337.053 22.756 C-337.068 20.982 -337.068 20.982 -337.083 19.173 C-337.087 18.104 -337.091 17.036 -337.096 15.935 C-337.101 15.001 -337.107 14.066 -337.113 13.104 C-337 11 -337 11 -336 10 C-336.041 8.866 -336.082 7.731 -336.125 6.562 C-336.084 5.387 -336.043 4.211 -336 3 C-332.637 0.758 -331.433 0.73 -327.49 0.665 C-326.362 0.642 -325.234 0.619 -324.072 0.595 C-322.853 0.581 -321.635 0.566 -320.379 0.551 C-318.502 0.518 -318.502 0.518 -316.587 0.485 C-313.938 0.441 -311.289 0.401 -308.64 0.367 C-305.25 0.323 -301.859 0.267 -298.469 0.205 C-295.231 0.148 -291.992 0.1 -288.754 0.051 C-287.537 0.03 -286.32 0.009 -285.067 -0.012 C-283.936 -0.026 -282.804 -0.039 -281.639 -0.053 C-280.644 -0.067 -279.65 -0.081 -278.625 -0.096 C-276.197 -0.007 -274.249 0.076 -272 1 C-271.16 4.572 -270.95 7.543 -271.352 11.191 C-271.236 12.118 -271.12 13.045 -271 14 C-268.451 14.925 -268.451 14.925 -265.116 14.759 C-263.811 14.776 -262.507 14.793 -261.163 14.81 C-259.699 14.798 -258.235 14.786 -256.771 14.773 C-255.244 14.781 -253.717 14.792 -252.19 14.805 C-248.027 14.834 -243.864 14.825 -239.701 14.81 C-235.357 14.801 -231.013 14.825 -226.668 14.846 C-218.434 14.881 -210.2 14.884 -201.966 14.877 C-192.595 14.871 -183.224 14.898 -173.853 14.929 C-154.568 14.99 -135.284 15.009 -116 15 C-116.33 14.01 -116.66 13.02 -117 12 C-114.556 5.556 -114.556 5.556 -113 4 C-110.435 3.921 -107.898 3.906 -105.334 3.934 C-104.129 3.941 -104.129 3.941 -102.9 3.948 C-101.148 3.959 -99.396 3.971 -97.643 3.986 C-94.864 4.008 -92.085 4.022 -89.305 4.034 C-81.399 4.067 -73.494 4.109 -65.588 4.171 C-60.756 4.209 -55.925 4.232 -51.093 4.246 C-49.256 4.254 -47.42 4.267 -45.583 4.287 C-32.012 4.514 -32.012 4.514 -19 1 C-12.616 -1.364 -6.647 -1.3 0 0 Z M-329 7 C-329 9.64 -329 12.28 -329 15 C-328.67 14.34 -328.34 13.68 -328 13 C-327.479 13.326 -326.958 13.652 -326.421 13.988 C-323.252 15.313 -320.697 15.225 -317.266 15.195 C-315.322 15.186 -315.322 15.186 -313.34 15.176 C-311.977 15.159 -310.613 15.142 -309.25 15.125 C-307.871 15.115 -306.492 15.106 -305.113 15.098 C-301.742 15.074 -298.371 15.041 -295 15 C-295 14.67 -295 14.34 -295 14 C-293.34 13.76 -291.671 13.584 -290 13.438 C-289.072 13.354 -288.144 13.27 -287.188 13.184 C-286.466 13.123 -285.744 13.062 -285 13 C-285 13.66 -285 14.32 -285 15 C-283.02 15 -281.04 15 -279 15 C-279 12.36 -279 9.72 -279 7 C-295.5 7 -312 7 -329 7 Z M257 7 C257 8.65 257 10.3 257 12 C258.61 13.61 260.367 13.168 262.596 13.209 C263.573 13.228 264.551 13.247 265.558 13.267 C270.024 13.325 274.49 13.374 278.956 13.405 C281.319 13.427 283.682 13.461 286.044 13.508 C289.436 13.574 292.826 13.602 296.219 13.621 C297.282 13.649 298.346 13.677 299.442 13.705 C300.419 13.703 301.397 13.7 302.404 13.697 C303.27 13.707 304.135 13.718 305.026 13.728 C305.678 13.488 306.329 13.248 307 13 C307.33 11.02 307.66 9.04 308 7 C291.17 7 274.34 7 257 7 Z M1 9 C-0.335 13.004 0.038 15.888 1 20 C4.593 21.198 7.885 21.162 11.625 21.168 C12.368 21.171 13.112 21.175 13.877 21.178 C15.448 21.183 17.018 21.185 18.588 21.185 C20.991 21.187 23.394 21.206 25.797 21.225 C27.323 21.228 28.849 21.23 30.375 21.23 C31.094 21.238 31.813 21.245 32.553 21.252 C36.261 21.235 37.83 21.113 41 19 C40.019 18.758 39.038 18.515 38.027 18.266 C29.699 16.2 21.395 14.063 13.109 11.832 C10.744 11.199 8.376 10.59 6 10 C4.67 9.629 4.67 9.629 3.312 9.25 C2.168 9.126 2.168 9.126 1 9 Z M-11 9 C-10.34 9.33 -9.68 9.66 -9 10 C-10.207 10.124 -10.207 10.124 -11.438 10.25 C-12.283 10.498 -13.129 10.745 -14 11 C-15.167 12.833 -15.167 12.833 -15 15 C-13.917 16.917 -13.917 16.917 -12 18 C-9.898 17.995 -9.898 17.995 -8 17 C-5.768 14.305 -5.768 14.305 -6.125 11.875 C-6.831 9.786 -6.831 9.786 -9.062 9.25 C-9.702 9.168 -10.341 9.085 -11 9 Z M-109 11 C-109 21.56 -109 32.12 -109 43 C-105.741 43.041 -102.482 43.083 -99.125 43.125 C-97.586 43.152 -97.586 43.152 -96.016 43.18 C-94.805 43.188 -94.805 43.188 -93.57 43.195 C-92.329 43.211 -92.329 43.211 -91.063 43.227 C-88.776 43.193 -88.776 43.193 -87 41 C-90.471 40.25 -90.471 40.25 -94 40 C-94.054 37.208 -94.094 34.417 -94.125 31.625 C-94.142 30.831 -94.159 30.037 -94.176 29.219 C-94.193 27.145 -94.103 25.071 -94 23 C-91.714 20.714 -91.029 20.67 -87.938 20.188 C-82.238 19.151 -76.777 17.533 -71.242 15.852 C-66.523 14.424 -61.792 13.163 -57 12 C-60.026 11.121 -62.713 10.878 -65.86 10.886 C-66.821 10.887 -67.782 10.887 -68.772 10.887 C-69.801 10.892 -70.83 10.897 -71.891 10.902 C-72.95 10.904 -74.01 10.905 -75.102 10.907 C-78.485 10.912 -81.867 10.925 -85.25 10.938 C-87.544 10.943 -89.839 10.947 -92.133 10.951 C-97.755 10.961 -103.378 10.981 -109 11 Z M-27.731 10.372 C-30.369 11.102 -33.021 11.754 -35.68 12.402 C-37.196 12.778 -37.196 12.778 -38.742 13.162 C-40.852 13.684 -42.964 14.197 -45.078 14.701 C-46.081 14.953 -47.084 15.205 -48.117 15.465 C-49.031 15.688 -49.945 15.911 -50.886 16.14 C-51.933 16.566 -51.933 16.566 -53 17 C-53.33 17.99 -53.66 18.98 -54 20 C-50.188 20.199 -46.375 20.382 -42.562 20.562 C-40.959 20.647 -40.959 20.647 -39.322 20.732 C-33.104 21.018 -27.118 21.259 -21 20 C-19.287 16.07 -20.647 12.909 -22 9 C-23.977 9 -25.846 9.824 -27.731 10.372 Z M44 13 C44 13.33 44 13.66 44 14 C45.382 14.385 46.783 14.707 48.188 15 C49.01 15.175 49.832 15.351 50.68 15.531 C52.386 15.876 54.098 16.195 55.812 16.5 C58 17 58 17 59.75 17.934 C62.506 19.24 65.219 19.872 68.188 20.562 C73.894 21.894 73.894 21.894 75 23 C75.101 25.428 75.139 27.822 75.125 30.25 C75.131 31.254 75.131 31.254 75.137 32.277 C75.129 36.07 74.752 39.239 74 43 C79.94 43 85.88 43 92 43 C92 32.44 92 21.88 92 11 C86.61 10.954 81.221 10.914 75.832 10.89 C74.002 10.88 72.172 10.867 70.342 10.849 C67.698 10.825 65.054 10.813 62.41 10.805 C61.604 10.794 60.797 10.784 59.966 10.773 C54.49 10.772 49.238 11.31 44 13 Z M-61 19 C-61 19.33 -61 19.66 -61 20 C-59.35 20 -57.7 20 -56 20 C-56 19.67 -56 19.34 -56 19 C-57.65 19 -59.3 19 -61 19 Z M257 20 C256.984 23.85 256.974 27.701 256.965 31.551 C256.96 32.635 256.955 33.72 256.951 34.837 C256.94 41.2 257.093 47.412 257.879 53.73 C258 56 258 56 257.525 58.24 C256.935 61.34 256.806 64.272 256.728 67.427 C256.696 68.704 256.663 69.982 256.63 71.299 C256.528 76.33 256.454 81.361 256.4 86.393 C256.359 90.215 256.298 94.034 256.191 97.855 C256.087 101.557 256.032 105.257 256.012 108.96 C255.996 110.372 255.963 111.784 255.912 113.195 C255.845 115.159 255.845 117.125 255.849 119.091 C255.83 120.21 255.81 121.33 255.791 122.484 C256.19 123.314 256.589 124.144 257 125 C260.3 125.33 263.6 125.66 267 126 C267 97.95 267 69.9 267 41 C278.88 41 290.76 41 303 41 C303.04 60.725 303.04 60.725 303.049 69.145 C303.055 74.886 303.062 80.627 303.075 86.368 C303.086 90.997 303.092 95.627 303.095 100.256 C303.097 102.021 303.1 103.785 303.106 105.55 C303.113 108.025 303.114 110.5 303.114 112.975 C303.117 113.702 303.121 114.428 303.124 115.177 C303.116 119.209 303.058 123.095 302 127 C299.294 127.625 297.407 127.77 294.684 127.699 C293.587 127.709 293.587 127.709 292.468 127.719 C290.124 127.737 287.782 127.715 285.438 127.688 C283.09 127.676 280.743 127.673 278.396 127.688 C276.933 127.695 275.469 127.687 274.006 127.662 C271.838 127.626 271.838 127.626 269 128 C269 128.99 269 129.98 269 131 C272.618 132.206 275.93 132.143 279.695 132.133 C280.443 132.134 281.191 132.135 281.962 132.136 C283.541 132.136 285.119 132.135 286.698 132.13 C289.123 132.125 291.548 132.13 293.973 132.137 C295.505 132.136 297.038 132.135 298.57 132.133 C299.664 132.136 299.664 132.136 300.78 132.139 C304.177 132.426 304.177 132.426 307 131 C307.906 124.583 308.144 118.303 308.129 111.83 C308.131 110.857 308.133 109.883 308.135 108.88 C308.139 105.692 308.136 102.504 308.133 99.316 C308.133 97.092 308.134 94.868 308.136 92.643 C308.137 87.998 308.135 83.352 308.13 78.706 C308.125 72.742 308.128 66.778 308.134 60.813 C308.138 56.228 308.136 51.643 308.134 47.058 C308.133 44.857 308.134 42.656 308.136 40.456 C308.139 37.392 308.135 34.328 308.129 31.264 C308.131 30.35 308.133 29.436 308.136 28.495 C308.261 24.11 308.261 24.11 307 20 C304.876 19.705 304.876 19.705 302.297 19.773 C301.296 19.773 300.295 19.773 299.263 19.773 C298.175 19.784 297.086 19.794 295.965 19.805 C294.856 19.808 293.748 19.81 292.606 19.813 C289.05 19.824 285.494 19.85 281.938 19.875 C279.533 19.885 277.129 19.894 274.725 19.902 C268.816 19.924 262.908 19.958 257 20 Z M-329 21 C-329.583 35.453 -330.023 49.904 -330.295 64.366 C-330.424 71.081 -330.6 77.79 -330.886 84.5 C-331.161 90.971 -331.307 97.437 -331.372 103.913 C-331.418 106.389 -331.509 108.865 -331.643 111.338 C-332.563 122.152 -332.563 122.152 -329 132 C-322.172 135.119 -314.289 134.018 -307.028 133.269 C-302.976 132.909 -299.119 133.104 -295.062 133.375 C-291.723 133.657 -291.723 133.657 -289 133 C-287.755 130.585 -287.755 130.585 -287 128 C-285.989 127.588 -284.979 127.175 -283.938 126.75 C-282.968 126.173 -281.999 125.595 -281 125 C-279.806 118.071 -279.809 111.088 -279.719 104.07 C-279.7 102.958 -279.682 101.846 -279.663 100.7 C-279.585 95.974 -279.516 91.248 -279.448 86.521 C-279.396 83.059 -279.339 79.596 -279.281 76.133 C-279.268 75.061 -279.254 73.989 -279.24 72.885 C-279.215 71.397 -279.215 71.397 -279.189 69.879 C-279.171 68.571 -279.171 68.571 -279.151 67.236 C-279 65 -279 65 -278 62 C-277.903 59.074 -277.86 56.172 -277.867 53.246 C-277.866 52.389 -277.865 51.533 -277.864 50.65 C-277.864 48.84 -277.865 47.031 -277.87 45.221 C-277.875 42.445 -277.87 39.669 -277.863 36.893 C-277.864 35.135 -277.865 33.378 -277.867 31.621 C-277.865 30.788 -277.863 29.954 -277.861 29.096 C-277.766 24.915 -277.766 24.915 -279 21 C-281.124 20.705 -281.124 20.705 -283.703 20.773 C-284.704 20.773 -285.705 20.773 -286.737 20.773 C-287.825 20.784 -288.914 20.794 -290.035 20.805 C-291.144 20.808 -292.252 20.81 -293.394 20.813 C-296.95 20.824 -300.506 20.85 -304.062 20.875 C-306.467 20.885 -308.871 20.894 -311.275 20.902 C-317.184 20.924 -323.092 20.958 -329 21 Z M-271 21 C-272.44 28.198 -272 35.659 -272 43 C-220.52 43 -169.04 43 -116 43 C-116 35.74 -116 28.48 -116 21 C-136.192 20.884 -156.384 20.795 -176.577 20.741 C-185.952 20.715 -195.327 20.68 -204.701 20.623 C-212.87 20.573 -221.038 20.541 -229.206 20.53 C-233.534 20.523 -237.861 20.508 -242.189 20.471 C-246.258 20.438 -250.326 20.427 -254.395 20.434 C-255.892 20.433 -257.39 20.423 -258.888 20.404 C-260.923 20.379 -262.959 20.388 -264.995 20.399 C-266.708 20.392 -266.708 20.392 -268.456 20.385 C-269.715 20.689 -269.715 20.689 -271 21 Z M99 23 C98.174 25.098 98.174 25.098 98.414 27.57 C98.433 28.466 98.453 29.362 98.473 30.285 C98.523 31.222 98.573 32.159 98.625 33.125 C98.652 34.07 98.679 35.015 98.707 35.988 C98.778 38.328 98.877 40.663 99 43 C118.671 43.093 138.341 43.164 158.012 43.207 C167.145 43.228 176.278 43.256 185.41 43.302 C193.368 43.342 201.325 43.367 209.282 43.376 C213.498 43.382 217.714 43.394 221.93 43.423 C225.893 43.45 229.857 43.458 233.82 43.452 C235.279 43.454 236.738 43.462 238.197 43.477 C240.18 43.497 242.164 43.49 244.147 43.481 C245.26 43.485 246.372 43.488 247.519 43.492 C248.338 43.33 249.156 43.167 250 43 C251.182 40.374 251.128 37.784 251.133 34.926 C251.135 33.801 251.135 33.801 251.137 32.654 C251.133 31.882 251.129 31.109 251.125 30.312 C251.129 29.528 251.133 28.744 251.137 27.936 C251.495 24.162 251.495 24.162 250 21 C248.141 20.899 246.277 20.869 244.415 20.866 C242.596 20.86 242.596 20.86 240.74 20.853 C239.384 20.854 238.028 20.854 236.671 20.855 C235.252 20.852 233.833 20.848 232.414 20.845 C228.548 20.836 224.682 20.833 220.816 20.833 C217.591 20.832 214.366 20.828 211.14 20.825 C203.528 20.816 195.916 20.814 188.303 20.815 C180.452 20.815 172.6 20.805 164.748 20.789 C158.01 20.776 151.272 20.771 144.534 20.771 C140.508 20.771 136.483 20.769 132.457 20.758 C128.668 20.748 124.878 20.748 121.089 20.755 C119.699 20.757 118.31 20.754 116.921 20.748 C115.021 20.74 113.12 20.746 111.22 20.753 C110.157 20.752 109.095 20.752 108 20.751 C104.641 21.03 102.047 21.538 99 23 Z M-87 29 C-86.595 31.782 -86.595 31.782 -85 34 C-83.043 34.099 -81.082 34.126 -79.123 34.127 C-77.207 34.131 -77.207 34.131 -75.252 34.136 C-73.823 34.134 -72.394 34.132 -70.965 34.129 C-69.471 34.131 -67.976 34.133 -66.482 34.135 C-62.412 34.139 -58.341 34.137 -54.271 34.134 C-50.02 34.132 -45.769 34.134 -41.518 34.136 C-34.376 34.138 -27.235 34.135 -20.093 34.13 C-11.828 34.125 -3.562 34.127 4.703 34.132 C11.789 34.137 18.874 34.137 25.959 34.135 C30.196 34.133 34.433 34.133 38.669 34.136 C42.653 34.139 46.636 34.137 50.619 34.131 C52.084 34.13 53.549 34.13 55.014 34.133 C57.008 34.135 59.002 34.131 60.996 34.127 C62.672 34.126 62.672 34.126 64.383 34.126 C66.982 34.177 66.982 34.177 69 33 C69.167 29.958 69.167 29.958 69 27 C48.955 26.953 28.911 26.918 8.866 26.896 C-0.44 26.886 -9.747 26.872 -19.053 26.849 C-27.162 26.829 -35.272 26.816 -43.381 26.812 C-47.677 26.809 -51.972 26.803 -56.268 26.789 C-60.308 26.775 -64.348 26.771 -68.388 26.774 C-69.874 26.773 -71.36 26.769 -72.846 26.762 C-74.868 26.752 -76.891 26.755 -78.913 26.759 C-80.047 26.758 -81.181 26.756 -82.349 26.754 C-85.156 26.73 -85.156 26.73 -87 29 Z M-58 41 C-58 41.33 -58 41.66 -58 42 C-53.38 42 -48.76 42 -44 42 C-44 41.67 -44 41.34 -44 41 C-48.62 41 -53.24 41 -58 41 Z M-6 41 C-6 41.33 -6 41.66 -6 42 C-4.35 42 -2.7 42 -1 42 C-1 41.67 -1 41.34 -1 41 C-2.65 41 -4.3 41 -6 41 Z M25 41 C25 41.33 25 41.66 25 42 C29.62 42 34.24 42 39 42 C39 41.67 39 41.34 39 41 C34.38 41 29.76 41 25 41 Z M273 47 C273 48.98 273 50.96 273 53 C273.33 53 273.66 53 274 53 C274 56.63 274 60.26 274 64 C273.67 64 273.34 64 273 64 C273 82.81 273 101.62 273 121 C285.423 122.29 285.423 122.29 297 120 C297.303 117.227 297.303 117.227 297.243 113.831 C297.245 113.187 297.247 112.543 297.249 111.88 C297.252 109.739 297.242 107.598 297.23 105.457 C297.229 103.971 297.229 102.484 297.229 100.998 C297.228 97.875 297.219 94.752 297.206 91.629 C297.189 87.635 297.185 83.642 297.186 79.648 C297.185 76.574 297.18 73.5 297.173 70.427 C297.17 68.955 297.168 67.483 297.167 66.012 C297.165 63.946 297.156 61.881 297.145 59.816 C297.141 58.642 297.138 57.468 297.134 56.258 C297.003 53.065 296.749 50.109 296 47 C293.7 46.164 293.7 46.164 290.871 46.414 C289.837 46.433 288.802 46.453 287.736 46.473 C286.103 46.548 286.103 46.548 284.438 46.625 C282.799 46.666 282.799 46.666 281.127 46.707 C278.416 46.778 275.709 46.877 273 47 Z M-85 51 C-85.505 53.898 -85.505 53.898 -85.562 57.062 C-85.792 62.792 -85.792 62.792 -88 65 C-88.46 67.658 -88.46 67.658 -88.608 70.811 C-88.685 72.029 -88.763 73.247 -88.842 74.501 C-89.093 79.323 -89.274 84.147 -89.408 88.973 C-89.511 92.647 -89.661 96.306 -89.92 99.972 C-91.202 113.347 -91.202 113.347 -88 126 C-81.634 129.999 -73.676 128.952 -66.518 128.072 C-63.768 127.166 -63.768 127.166 -62.179 124.365 C-60.86 120.601 -60.632 117.71 -60.644 113.725 C-60.642 113.024 -60.639 112.322 -60.637 111.6 C-60.634 109.299 -60.653 106.999 -60.672 104.699 C-60.675 103.096 -60.677 101.493 -60.678 99.889 C-60.682 96.54 -60.697 93.19 -60.719 89.841 C-60.747 85.538 -60.758 81.236 -60.762 76.934 C-60.767 73.629 -60.776 70.324 -60.788 67.018 C-60.794 65.431 -60.799 63.844 -60.803 62.256 C-60.809 60.047 -60.823 57.837 -60.839 55.628 C-60.846 54.369 -60.853 53.11 -60.86 51.813 C-60.68 49.097 -60.68 49.097 -62 48 C-65.283 47.722 -68.581 47.768 -71.875 47.75 C-72.799 47.729 -73.724 47.709 -74.676 47.688 C-76.008 47.68 -76.008 47.68 -77.367 47.672 C-78.183 47.663 -78.999 47.653 -79.839 47.644 C-82.522 48.086 -83.388 48.842 -85 51 Z M-39 48 C-39.046 57.319 -39.082 66.637 -39.104 75.956 C-39.114 80.283 -39.128 84.61 -39.151 88.937 C-39.173 93.112 -39.185 97.288 -39.19 101.463 C-39.193 103.057 -39.201 104.65 -39.211 106.243 C-39.226 108.474 -39.228 110.705 -39.227 112.937 C-39.231 114.207 -39.236 115.477 -39.241 116.786 C-39.012 119.835 -38.764 121.532 -37 124 C-31.136 126.453 -25.205 126.338 -18.922 126.371 C-17.873 126.38 -16.825 126.389 -15.745 126.398 C-13.54 126.413 -11.334 126.422 -9.129 126.426 C-5.747 126.438 -2.366 126.487 1.016 126.537 C3.161 126.547 5.307 126.554 7.453 126.559 C8.972 126.588 8.972 126.588 10.521 126.618 C11.459 126.612 12.398 126.606 13.364 126.599 C14.602 126.607 14.602 126.607 15.864 126.615 C18.202 126.157 18.202 126.157 19.767 123.898 C21.253 120.405 21.368 117.833 21.356 114.038 C21.358 113.358 21.361 112.678 21.363 111.977 C21.366 109.741 21.347 107.506 21.328 105.27 C21.325 103.712 21.323 102.155 21.322 100.597 C21.318 97.34 21.303 94.083 21.281 90.825 C21.253 86.646 21.242 82.466 21.238 78.286 C21.233 75.073 21.224 71.86 21.212 68.648 C21.206 67.106 21.201 65.564 21.197 64.022 C21.191 61.873 21.177 59.723 21.161 57.573 C21.154 56.349 21.147 55.125 21.14 53.864 C21.196 51.055 21.196 51.055 20 49 C17.511 48.665 17.511 48.665 14.47 48.681 C12.699 48.651 12.699 48.651 10.891 48.621 C9.606 48.609 8.32 48.598 6.996 48.586 C5.688 48.567 4.38 48.547 3.032 48.527 C-0.452 48.476 -3.935 48.436 -7.419 48.399 C-10.971 48.359 -14.524 48.308 -18.076 48.258 C-25.051 48.161 -32.025 48.077 -39 48 Z M43 49 C42.895 51.11 42.861 53.224 42.855 55.336 C42.851 55.998 42.848 56.66 42.845 57.342 C42.835 59.543 42.833 61.744 42.832 63.945 C42.829 65.474 42.825 67.003 42.822 68.532 C42.816 71.745 42.814 74.958 42.815 78.171 C42.815 82.276 42.801 86.382 42.784 90.487 C42.773 93.65 42.771 96.812 42.771 99.974 C42.77 101.487 42.766 102.999 42.758 104.512 C42.748 106.637 42.751 108.762 42.757 110.887 C42.756 112.094 42.754 113.302 42.753 114.545 C43.026 118.361 43.518 121.463 45 125 C47.284 125.964 47.284 125.964 50.008 125.684 C50.994 125.661 51.98 125.638 52.996 125.615 C54.545 125.527 54.545 125.527 56.125 125.438 C57.685 125.39 57.685 125.39 59.277 125.342 C61.854 125.259 64.426 125.144 67 125 C67.07 117.263 67.123 109.527 67.155 101.79 C67.171 98.197 67.192 94.605 67.226 91.012 C67.259 87.543 67.277 84.074 67.285 80.605 C67.293 78.642 67.316 76.678 67.34 74.714 C67.34 73.514 67.34 72.313 67.341 71.075 C67.347 70.021 67.354 68.966 67.361 67.879 C66.948 64.582 65.809 62.748 64 60 C63.777 57.648 63.777 57.648 63.938 55.375 C64.179 51.75 64.148 51.221 62 48 C60.087 47.57 60.087 47.57 57.902 47.672 C57.101 47.677 56.3 47.682 55.475 47.688 C54.637 47.708 53.8 47.729 52.938 47.75 C52.096 47.755 51.255 47.76 50.389 47.766 C46.374 47.43 46.374 47.43 43 49 Z M-272 49 C-272 51.97 -272 54.94 -272 58 C-212.6 58 -153.2 58 -92 58 C-92 55.36 -92 52.72 -92 50 C-93.109 48.666 -93.109 48.666 -95.919 48.877 C-97.238 48.878 -98.557 48.879 -99.916 48.88 C-100.648 48.879 -101.379 48.878 -102.133 48.877 C-104.604 48.875 -107.075 48.881 -109.545 48.886 C-111.309 48.887 -113.073 48.887 -114.836 48.886 C-119.64 48.886 -124.443 48.892 -129.247 48.899 C-134.261 48.905 -139.275 48.905 -144.289 48.907 C-153.791 48.91 -163.293 48.918 -172.796 48.928 C-183.61 48.939 -194.425 48.945 -205.24 48.95 C-227.493 48.96 -249.747 48.978 -272 49 Z M72 49 C71.34 51.64 70.68 54.28 70 57 C129.4 57 188.8 57 250 57 C250 54.36 250 51.72 250 49 C226.826 48.813 203.653 48.672 180.479 48.586 C169.719 48.544 158.96 48.488 148.201 48.396 C138.826 48.317 129.451 48.265 120.076 48.247 C115.109 48.237 110.143 48.212 105.176 48.154 C100.506 48.1 95.837 48.083 91.166 48.095 C89.447 48.093 87.729 48.077 86.011 48.046 C83.672 48.007 81.338 48.016 78.998 48.038 C77.687 48.031 76.376 48.023 75.026 48.016 C73.528 48.503 73.528 48.503 72 49 Z M-268 64 C-268.023 71.936 -268.041 79.872 -268.052 87.808 C-268.057 91.493 -268.064 95.178 -268.075 98.863 C-268.086 102.416 -268.092 105.969 -268.095 109.522 C-268.097 110.88 -268.1 112.239 -268.106 113.597 C-268.113 115.494 -268.113 117.39 -268.114 119.287 C-268.116 120.368 -268.118 121.45 -268.12 122.564 C-268.276 124.948 -268.276 124.948 -267 126 C-263.683 126.434 -260.339 126.562 -257 126.75 C-256.059 126.818 -255.118 126.887 -254.148 126.957 C-253.254 127.007 -252.359 127.058 -251.438 127.109 C-250.611 127.161 -249.785 127.212 -248.934 127.265 C-248.296 127.177 -247.657 127.09 -247 127 C-245.944 123.831 -245.873 121.588 -245.871 118.259 C-245.867 117.082 -245.864 115.904 -245.861 114.69 C-245.863 113.418 -245.865 112.146 -245.867 110.836 C-245.866 109.533 -245.865 108.23 -245.864 106.888 C-245.863 104.132 -245.865 101.377 -245.87 98.621 C-245.875 95.082 -245.872 91.543 -245.866 88.005 C-245.862 84.636 -245.865 81.267 -245.867 77.898 C-245.865 76.622 -245.863 75.346 -245.861 74.032 C-245.864 72.86 -245.867 71.689 -245.871 70.482 C-245.871 69.445 -245.872 68.408 -245.873 67.34 C-245.737 65.041 -245.737 65.041 -247 64 C-248.562 63.913 -250.127 63.893 -251.691 63.902 C-252.636 63.906 -253.58 63.909 -254.553 63.912 C-256.043 63.925 -256.043 63.925 -257.562 63.938 C-258.56 63.942 -259.557 63.947 -260.584 63.951 C-263.056 63.963 -265.528 63.979 -268 64 Z M-232 64 C-233.766 65.766 -233.155 68.302 -233.177 70.697 C-233.19 71.915 -233.203 73.133 -233.216 74.388 C-233.224 75.727 -233.232 77.067 -233.238 78.406 C-233.242 79.077 -233.246 79.748 -233.251 80.439 C-233.272 83.987 -233.286 87.535 -233.295 91.083 C-233.306 94.758 -233.341 98.434 -233.38 102.109 C-233.406 104.927 -233.415 107.744 -233.418 110.561 C-233.423 111.917 -233.435 113.272 -233.453 114.628 C-233.478 116.519 -233.475 118.411 -233.47 120.303 C-233.476 121.381 -233.482 122.46 -233.488 123.571 C-233.327 124.372 -233.166 125.174 -233 126 C-225.555 127.861 -217.674 127 -210 127 C-210 106.21 -210 85.42 -210 64 C-217.26 64 -224.52 64 -232 64 Z M-197 65 C-197.437 67.559 -197.437 67.559 -197.544 70.697 C-197.609 71.915 -197.673 73.133 -197.74 74.388 C-197.942 79.221 -198.093 84.055 -198.201 88.891 C-198.283 92.571 -198.404 96.242 -198.619 99.917 C-199.733 113.23 -199.733 113.23 -197 126 C-192.4 129.301 -186.989 128.625 -181.62 127.951 C-178.954 127.47 -176.577 126.859 -174 126 C-172.482 119.743 -172.856 113.195 -172.867 106.793 C-172.866 105.631 -172.865 104.469 -172.864 103.273 C-172.864 100.828 -172.865 98.383 -172.87 95.938 C-172.875 92.183 -172.87 88.429 -172.863 84.674 C-172.864 82.297 -172.865 79.92 -172.867 77.543 C-172.865 76.416 -172.863 75.289 -172.861 74.128 C-172.864 73.089 -172.867 72.051 -172.871 70.981 C-172.871 70.065 -172.872 69.149 -172.873 68.205 C-172.857 65.957 -172.857 65.957 -174 64 C-176.104 63.703 -176.104 63.703 -178.621 63.77 C-180.024 63.772 -180.024 63.772 -181.455 63.775 C-182.931 63.794 -182.931 63.794 -184.438 63.812 C-185.908 63.813 -185.908 63.813 -187.408 63.814 C-192.366 63.646 -192.366 63.646 -197 65 Z M-161 65 C-161.303 67.564 -161.303 67.564 -161.243 70.697 C-161.246 71.915 -161.249 73.133 -161.252 74.388 C-161.245 75.727 -161.238 77.067 -161.23 78.406 C-161.229 79.77 -161.229 81.134 -161.229 82.498 C-161.228 85.359 -161.219 88.221 -161.206 91.083 C-161.189 94.758 -161.185 98.434 -161.186 102.109 C-161.185 104.927 -161.18 107.744 -161.173 110.561 C-161.17 111.917 -161.168 113.272 -161.167 114.628 C-161.165 116.52 -161.155 118.411 -161.145 120.303 C-161.141 121.381 -161.138 122.46 -161.134 123.571 C-161.274 125.949 -161.274 125.949 -160 127 C-158.377 127.099 -156.751 127.131 -155.125 127.133 C-154.14 127.134 -153.155 127.135 -152.141 127.137 C-150.586 127.131 -150.586 127.131 -149 127.125 C-147.964 127.129 -146.927 127.133 -145.859 127.137 C-144.875 127.135 -143.89 127.134 -142.875 127.133 C-141.965 127.132 -141.055 127.131 -140.117 127.129 C-138.015 127.236 -138.015 127.236 -137 126 C-136.876 124.068 -136.822 122.131 -136.795 120.195 C-136.775 118.954 -136.755 117.713 -136.734 116.434 C-136.717 115.069 -136.7 113.705 -136.684 112.34 C-136.663 110.951 -136.642 109.563 -136.621 108.174 C-136.565 104.513 -136.516 100.852 -136.468 97.19 C-136.418 93.457 -136.362 89.724 -136.307 85.99 C-136.199 78.66 -136.098 71.33 -136 64 C-139.792 63.971 -143.583 63.953 -147.375 63.938 C-148.995 63.925 -148.995 63.925 -150.648 63.912 C-151.68 63.909 -152.711 63.906 -153.773 63.902 C-154.727 63.897 -155.68 63.892 -156.662 63.886 C-159.023 63.844 -159.023 63.844 -161 65 Z M-125 64 C-124.939 72.067 -124.862 80.133 -124.764 88.2 C-124.719 91.945 -124.68 95.69 -124.654 99.435 C-124.628 103.047 -124.587 106.658 -124.537 110.27 C-124.52 111.651 -124.509 113.031 -124.502 114.412 C-124.493 116.34 -124.463 118.268 -124.432 120.195 C-124.421 121.294 -124.41 122.393 -124.399 123.526 C-124.267 124.342 -124.136 125.159 -124 126 C-119.605 127.465 -115.462 126.921 -110.875 126.688 C-109.943 126.652 -109.011 126.617 -108.051 126.58 C-106.722 126.515 -106.722 126.515 -105.367 126.449 C-104.554 126.411 -103.74 126.374 -102.902 126.335 C-101.96 126.169 -101.96 126.169 -101 126 C-99.699 123.399 -99.873 121.501 -99.871 118.588 C-99.867 117.457 -99.864 116.325 -99.861 115.16 C-99.863 113.933 -99.865 112.706 -99.867 111.441 C-99.866 110.186 -99.865 108.931 -99.864 107.638 C-99.864 104.979 -99.865 102.32 -99.87 99.661 C-99.875 96.253 -99.872 92.846 -99.866 89.438 C-99.862 86.189 -99.865 82.94 -99.867 79.691 C-99.865 78.466 -99.863 77.241 -99.861 75.979 C-99.864 74.845 -99.867 73.71 -99.871 72.541 C-99.871 71.541 -99.872 70.541 -99.873 69.511 C-99.894 66.871 -99.894 66.871 -101 64 C-103.426 63.58 -103.426 63.58 -106.348 63.707 C-107.967 63.722 -107.967 63.722 -109.619 63.736 C-111.324 63.774 -111.324 63.774 -113.062 63.812 C-114.203 63.826 -115.343 63.84 -116.518 63.854 C-119.346 63.889 -122.173 63.938 -125 64 Z M79 66 C78.415 68.577 78.415 68.577 78.546 71.643 C78.546 72.824 78.547 74.005 78.547 75.222 C78.567 76.502 78.588 77.783 78.609 79.102 C78.615 80.408 78.621 81.715 78.627 83.061 C78.642 86.537 78.681 90.012 78.725 93.487 C78.766 97.033 78.785 100.579 78.805 104.125 C78.848 111.084 78.918 118.042 79 125 C86.92 125 94.84 125 103 125 C103 104.87 103 84.74 103 64 C85.236 62.509 85.236 62.509 79 66 Z M116.217 65.909 C114.486 70.305 114.61 74.297 114.672 78.98 C114.674 79.948 114.676 80.917 114.678 81.914 C114.684 83.961 114.698 86.007 114.719 88.054 C114.75 91.159 114.76 94.264 114.766 97.369 C114.775 99.365 114.785 101.36 114.797 103.355 C114.801 104.272 114.805 105.19 114.81 106.134 C114.183 116.194 114.183 116.194 117 125 C118.708 125.087 120.419 125.107 122.129 125.098 C123.163 125.094 124.198 125.091 125.264 125.088 C126.352 125.08 127.441 125.071 128.562 125.062 C129.655 125.058 130.747 125.053 131.873 125.049 C134.582 125.037 137.291 125.021 140 125 C140.023 117.194 140.041 109.389 140.052 101.583 C140.057 97.959 140.064 94.334 140.075 90.71 C140.086 87.215 140.092 83.721 140.095 80.226 C140.098 78.238 140.105 76.249 140.113 74.261 C140.113 73.06 140.113 71.859 140.114 70.621 C140.117 69.026 140.117 69.026 140.12 67.398 C140.271 65.048 140.271 65.048 139 64 C135.551 63.666 132.088 63.675 128.625 63.625 C127.653 63.588 126.681 63.55 125.68 63.512 C124.746 63.5 123.813 63.489 122.852 63.477 C121.994 63.457 121.136 63.437 120.252 63.417 C117.843 63.826 117.843 63.826 116.217 65.909 Z M153 65 C152.595 67.527 152.595 67.527 152.531 70.621 C152.484 71.823 152.436 73.024 152.387 74.261 C152.264 79.024 152.173 83.787 152.139 88.551 C152.112 92.179 152.044 95.796 151.879 99.42 C151.72 102.919 151.662 106.406 151.678 109.908 C151.66 111.9 151.539 113.89 151.417 115.878 C151.262 119.964 151.262 119.964 154 125 C160.93 125 167.86 125 175 125 C175 104.87 175 84.74 175 64 C163.613 62.859 163.613 62.859 153 65 Z M191 64 C187.9 69.149 187.9 69.149 187.644 74.601 C187.641 75.698 187.638 76.796 187.634 77.926 C187.647 79.101 187.659 80.275 187.672 81.484 C187.674 82.696 187.676 83.907 187.678 85.155 C187.684 87.71 187.698 90.266 187.719 92.821 C187.75 96.749 187.76 100.677 187.766 104.605 C187.775 107.086 187.785 109.566 187.797 112.047 C187.801 113.229 187.805 114.411 187.81 115.629 C187.819 116.714 187.829 117.799 187.839 118.917 C187.846 119.877 187.853 120.837 187.86 121.825 C187.758 123.978 187.758 123.978 189 125 C196.59 125 204.18 125 212 125 C212 104.87 212 84.74 212 64 C205.07 64 198.14 64 191 64 Z M224 64 C224.33 64.66 224.66 65.32 225 66 C224.67 66.66 224.34 67.32 224 68 C223.904 69.782 223.872 71.567 223.871 73.352 C223.867 74.47 223.864 75.587 223.861 76.739 C223.863 77.951 223.865 79.162 223.867 80.41 C223.866 81.648 223.865 82.886 223.864 84.161 C223.863 87.454 223.867 90.746 223.873 94.039 C223.875 96.062 223.873 98.085 223.87 100.109 C223.863 103.98 223.864 107.851 223.867 111.723 C223.865 112.936 223.863 114.15 223.861 115.4 C223.864 116.515 223.867 117.629 223.871 118.778 C223.871 119.764 223.872 120.751 223.873 121.767 C223.75 123.972 223.75 123.972 225 125 C230.928 126.642 238.376 128.091 244 125 C247.179 118.992 245.616 110.685 245.208 104.159 C244.942 99.546 244.958 94.944 244.992 90.324 C244.998 89.506 245.004 88.687 245.01 87.843 C245.022 86.195 245.035 84.547 245.048 82.898 C245.085 76.599 245.032 70.299 245 64 C238.07 64 231.14 64 224 64 Z M152 73 C153 76 153 76 153 76 Z M152 77 C152 84.26 152 91.52 152 99 C152.33 99 152.66 99 153 99 C153 91.74 153 84.48 153 77 C152.67 77 152.34 77 152 77 Z M152 103 C152 104.65 152 106.3 152 108 C152.33 108 152.66 108 153 108 C153 106.35 153 104.7 153 103 C152.67 103 152.34 103 152 103 Z M152 121 C153 125 153 125 153 125 Z M-55 126 C-56.211 129.105 -56.211 129.105 -56 133 C-54.023 133.134 -52.043 133.232 -50.062 133.312 C-48.96 133.371 -47.858 133.429 -46.723 133.488 C-45.824 133.327 -44.926 133.166 -44 133 C-43.092 130.526 -43 128.611 -43 126 C-44.979 125.919 -46.958 125.861 -48.938 125.812 C-50.04 125.778 -51.142 125.743 -52.277 125.707 C-53.176 125.804 -54.074 125.9 -55 126 Z M26 126 C26 127.32 26 128.64 26 130 C26.66 130 27.32 130 28 130 C27.67 130.99 27.34 131.98 27 133 C28.812 133.027 30.625 133.046 32.438 133.062 C33.952 133.08 33.952 133.08 35.496 133.098 C37.94 133.286 37.94 133.286 39 132 C39.167 129.5 39.167 129.5 39 127 C37.914 125.687 37.914 125.687 35.277 125.902 C34.175 125.914 33.073 125.926 31.938 125.938 C30.833 125.947 29.728 125.956 28.59 125.965 C27.735 125.976 26.881 125.988 26 126 Z M-24 11 C-22 12 -22 12 -22 12 Z M3 11 C6 12 6 12 6 12 Z M-11 16 C-9 17 -9 17 -9 17 Z " fill="#ffffff" transform="translate(370,27)" id="SvgjsPath1000" class=""></path>
<path d="M0 0 C0.942 -0.005 1.885 -0.01 2.855 -0.015 C4.414 -0.008 4.414 -0.008 6.004 -0.001 C7.11 -0.004 8.215 -0.007 9.354 -0.01 C13.096 -0.017 16.838 -0.01 20.58 -0.003 C23.275 -0.006 25.97 -0.009 28.664 -0.013 C34.543 -0.02 40.421 -0.02 46.299 -0.015 C55.041 -0.007 63.782 -0.011 72.523 -0.017 C88.132 -0.028 103.74 -0.027 119.349 -0.021 C133.007 -0.016 146.666 -0.015 160.324 -0.017 C161.681 -0.017 161.681 -0.017 163.066 -0.017 C166.739 -0.018 170.411 -0.019 174.084 -0.019 C208.558 -0.025 243.031 -0.02 277.505 -0.009 C308.159 0 338.812 -0 369.465 -0.01 C403.876 -0.021 438.287 -0.025 472.698 -0.019 C476.364 -0.018 480.029 -0.018 483.695 -0.017 C484.597 -0.017 485.5 -0.017 486.43 -0.016 C500.083 -0.014 513.737 -0.017 527.39 -0.022 C542.908 -0.028 558.425 -0.026 573.943 -0.015 C582.637 -0.009 591.33 -0.009 600.023 -0.017 C605.821 -0.021 611.618 -0.018 617.415 -0.01 C620.725 -0.005 624.034 -0.004 627.343 -0.01 C630.898 -0.016 634.452 -0.01 638.007 -0.001 C639.048 -0.006 640.09 -0.01 641.163 -0.015 C642.573 -0.008 642.573 -0.008 644.011 0 C644.825 0 645.638 0 646.477 0 C648.443 0.251 648.443 0.251 650.443 2.251 C650.614 4.978 650.675 7.59 650.63 10.313 C650.63 11.059 650.629 11.805 650.628 12.573 C650.583 18.11 650.583 18.11 649.443 19.251 C642.41 20.412 635.269 20.395 628.163 20.382 C626.516 20.385 626.516 20.385 624.836 20.388 C621.161 20.394 617.486 20.393 613.812 20.391 C611.149 20.394 608.486 20.397 605.823 20.4 C599.275 20.408 592.727 20.41 586.18 20.41 C578.335 20.411 570.49 20.418 562.645 20.425 C543.693 20.441 524.741 20.447 505.789 20.452 C496.827 20.454 487.864 20.458 478.901 20.461 C448.226 20.474 417.551 20.485 386.875 20.488 C384.951 20.488 383.027 20.489 381.102 20.489 C379.174 20.489 377.245 20.489 375.316 20.49 C371.446 20.49 367.576 20.49 363.707 20.491 C362.747 20.491 361.788 20.491 360.799 20.491 C329.652 20.495 298.504 20.511 267.357 20.534 C234.43 20.559 201.503 20.572 168.575 20.574 C164.965 20.574 161.354 20.574 157.743 20.574 C156.854 20.574 155.965 20.574 155.049 20.574 C140.718 20.576 126.386 20.587 112.055 20.601 C97.668 20.615 83.281 20.619 68.895 20.611 C60.339 20.606 51.784 20.61 43.228 20.626 C37.522 20.636 31.815 20.635 26.109 20.625 C22.852 20.619 19.596 20.62 16.339 20.631 C12.84 20.642 9.341 20.635 5.841 20.623 C4.819 20.63 3.797 20.638 2.743 20.646 C1.816 20.639 0.888 20.632 -0.067 20.624 C-0.868 20.625 -1.669 20.625 -2.494 20.625 C-5.114 20.15 -5.994 19.382 -7.557 17.251 C-7.855 14.63 -7.977 12.301 -7.932 9.688 C-7.944 9.003 -7.956 8.318 -7.968 7.612 C-7.956 5.622 -7.956 5.622 -7.557 2.251 C-4.382 0.134 -3.63 0.001 0 0 Z " fill="#ffffff" transform="translate(39.557349264621735,392.7493016719818)" class="" id="SvgjsPath1001"></path>
<path d="M0 0 C0.937 -0.008 1.875 -0.016 2.841 -0.024 C3.875 -0.018 4.908 -0.011 5.973 -0.005 C7.073 -0.01 8.173 -0.015 9.306 -0.02 C13.029 -0.033 16.752 -0.024 20.475 -0.016 C23.155 -0.021 25.836 -0.027 28.517 -0.035 C34.365 -0.048 40.214 -0.051 46.062 -0.047 C54.758 -0.04 63.455 -0.05 72.151 -0.064 C88.585 -0.088 105.018 -0.093 121.451 -0.091 C134.138 -0.09 146.825 -0.093 159.511 -0.101 C161.332 -0.102 163.153 -0.103 164.973 -0.104 C165.877 -0.105 166.781 -0.105 167.712 -0.106 C169.07 -0.106 169.07 -0.106 170.455 -0.107 C171.362 -0.108 172.269 -0.108 173.203 -0.109 C198.719 -0.123 224.236 -0.132 249.752 -0.127 C250.714 -0.127 251.677 -0.127 252.669 -0.127 C257.548 -0.126 262.427 -0.125 267.306 -0.124 C268.275 -0.124 269.244 -0.123 270.242 -0.123 C272.202 -0.123 274.161 -0.122 276.121 -0.122 C306.62 -0.116 337.118 -0.132 367.617 -0.164 C401.858 -0.2 436.098 -0.219 470.338 -0.214 C473.987 -0.214 477.635 -0.213 481.283 -0.213 C482.182 -0.213 483.08 -0.213 484.005 -0.213 C497.589 -0.211 511.172 -0.223 524.756 -0.242 C540.197 -0.263 555.638 -0.267 571.079 -0.248 C579.728 -0.237 588.376 -0.241 597.025 -0.264 C602.795 -0.278 608.565 -0.275 614.335 -0.256 C617.627 -0.246 620.919 -0.246 624.211 -0.263 C627.751 -0.28 631.289 -0.267 634.829 -0.245 C635.861 -0.258 636.892 -0.27 637.955 -0.282 C644.724 -0.196 644.724 -0.196 648.254 2.542 C649.464 5.378 649.464 5.378 649.368 8.644 C647.464 11.378 647.464 11.378 645.501 11.923 C642.654 12.155 639.864 12.163 637.007 12.121 C635.901 12.128 634.795 12.135 633.655 12.143 C629.903 12.16 626.153 12.134 622.402 12.109 C619.703 12.113 617.005 12.118 614.306 12.127 C608.416 12.141 602.526 12.133 596.636 12.11 C587.877 12.077 579.119 12.077 570.36 12.084 C554.721 12.096 539.081 12.073 523.442 12.035 C509.757 12.002 496.072 11.98 482.386 11.968 C481.027 11.967 481.027 11.967 479.64 11.966 C475.961 11.962 472.282 11.959 468.603 11.956 C434.065 11.927 399.527 11.862 364.989 11.781 C334.275 11.71 303.562 11.673 272.849 11.663 C238.374 11.653 203.899 11.619 169.424 11.55 C165.752 11.543 162.08 11.535 158.408 11.528 C157.504 11.527 156.6 11.525 155.668 11.523 C141.988 11.496 128.307 11.487 114.627 11.487 C99.079 11.487 83.531 11.462 67.984 11.404 C59.272 11.372 50.561 11.36 41.849 11.375 C36.041 11.383 30.233 11.366 24.425 11.328 C21.109 11.307 17.793 11.302 14.476 11.319 C10.915 11.335 7.356 11.309 3.795 11.272 C2.749 11.287 1.703 11.302 0.626 11.318 C-4.116 11.223 -4.116 11.223 -6.536 10.378 C-7.869 7.01 -7.869 7.01 -7.536 3.378 C-5.337 0.352 -3.65 0.003 0 0 Z " fill="#ffffff" transform="translate(39.535811841487885,173.62165117263794)" id="SvgjsPath1002" class=""></path>
<path d="M0 0 C9.24 0 18.48 0 28 0 C28 3.3 28 6.6 28 10 C26.02 10.99 26.02 10.99 24 12 C22.146 13.103 22.146 13.103 21 15 C20.665 18.249 20.665 18.249 21 22 C20.905 22.768 20.811 23.536 20.714 24.327 C20.551 27.096 20.55 28.607 22 31 C26.987 32.254 31.975 31.836 37.062 31.562 C38.503 31.517 39.944 31.476 41.385 31.439 C44.926 31.34 48.462 31.185 52 31 C52.202 27.688 52.327 24.378 52.438 21.062 C52.496 20.117 52.555 19.171 52.615 18.197 C52.68 15.626 52.731 13.47 52 11 C48.556 10.038 48.556 10.038 45 10 C44.062 7.969 44.062 7.969 44 5.5 C43.959 4.685 43.918 3.871 43.875 3.031 C44 1 44 1 45 0 C46.988 -0.1 48.979 -0.131 50.969 -0.133 C52.179 -0.134 53.39 -0.135 54.637 -0.137 C55.912 -0.133 57.186 -0.129 58.5 -0.125 C59.775 -0.129 61.05 -0.133 62.363 -0.137 C63.574 -0.135 64.784 -0.134 66.031 -0.133 C67.151 -0.132 68.27 -0.131 69.424 -0.129 C72 0 72 0 73 1 C73.072 2.519 73.084 4.042 73.062 5.562 C73.053 6.389 73.044 7.215 73.035 8.066 C73.024 8.704 73.012 9.343 73 10 C72.01 10 71.02 10 70 10 C69.67 10.66 69.34 11.32 69 12 C67.971 12.087 67.971 12.087 66.922 12.176 C65.971 12.584 65.971 12.584 65 13 C64.854 15.536 64.973 17.68 65.25 20.188 C65.944 28.446 66.133 36.667 66.126 44.95 C66.125 46.317 66.127 47.685 66.131 49.052 C66.137 50.993 66.135 52.934 66.133 54.875 C66.132 56.007 66.131 57.139 66.129 58.305 C66 61 66 61 65 63 C65.99 62.67 66.98 62.34 68 62 C70.126 62.622 70.126 62.622 72 64 C73.2 67.491 73.348 70.541 72 74 C68.191 75.632 64.338 75.348 60.25 75.25 C58.583 75.279 58.583 75.279 56.883 75.309 C47.534 75.365 47.534 75.365 44 73 C43.758 70.871 43.758 70.871 44.125 68.438 C44.231 67.632 44.336 66.826 44.445 65.996 C44.628 65.337 44.811 64.679 45 64 C47 63 47 63 52 63 C52 56.07 52 49.14 52 42 C51.01 42.495 51.01 42.495 50 43 C47.906 43.05 45.809 43.036 43.715 42.992 C41.836 42.967 41.836 42.967 39.92 42.941 C37.261 42.897 34.602 42.845 31.943 42.785 C30.692 42.771 29.441 42.757 28.152 42.742 C26.42 42.709 26.42 42.709 24.652 42.675 C23.339 42.836 23.339 42.836 22 43 C20.643 47.072 20.863 50.744 21 55 C21.005 55.781 21.01 56.562 21.016 57.367 C21.064 59.798 21.064 59.798 22 63 C25.043 63.667 25.043 63.667 28 63 C28 66.63 28 70.26 28 74 C18.76 74 9.52 74 0 74 C0 70.7 0 67.4 0 64 C2.862 62.569 4.934 63.4 8 64 C8.034 56.791 8.015 49.584 7.957 42.375 C7.944 39.922 7.943 37.469 7.955 35.016 C7.97 31.493 7.941 27.972 7.902 24.449 C7.917 23.349 7.931 22.249 7.946 21.116 C7.891 18.239 7.829 15.757 7 13 C4.683 11.964 2.349 10.962 0 10 C0 6.7 0 3.4 0 0 Z M44 62 C46 63 46 63 46 63 Z " fill="#ffffff" transform="translate(569,302)" id="SvgjsPath1003" class=""></path>
<path d="M0 0 C0.908 -0.013 1.816 -0.026 2.751 -0.039 C4.234 -0.05 4.234 -0.05 5.747 -0.061 C6.757 -0.069 7.767 -0.077 8.808 -0.086 C10.951 -0.1 13.093 -0.11 15.236 -0.118 C18.516 -0.135 21.794 -0.179 25.073 -0.223 C27.152 -0.234 29.231 -0.242 31.309 -0.249 C32.292 -0.266 33.274 -0.284 34.286 -0.302 C41.09 -0.28 41.09 -0.28 44.378 2.079 C45.727 4.177 45.727 4.177 45.727 6.177 C46.387 6.177 47.047 6.177 47.727 6.177 C49.227 7.552 49.227 7.552 50.727 9.177 C51.387 9.837 52.047 10.497 52.727 11.177 C53.187 15.241 53.051 19.34 53.04 23.427 C53.056 24.56 53.072 25.693 53.089 26.861 C53.093 34.025 52.645 38.895 47.727 44.427 C45.727 46.177 45.727 46.177 42.727 48.177 C43.325 50.796 43.325 50.796 44.727 53.177 C45.717 53.672 45.717 53.672 46.727 54.177 C48.489 56.104 50.085 58.145 51.727 60.177 C51.067 60.177 50.407 60.177 49.727 60.177 C50.387 60.837 51.047 61.497 51.727 62.177 C52.387 62.177 53.047 62.177 53.727 62.177 C53.727 62.837 53.727 63.497 53.727 64.177 C55.707 63.682 55.707 63.682 57.727 63.177 C57.781 64.989 57.82 66.802 57.852 68.615 C57.875 69.624 57.899 70.633 57.923 71.673 C57.858 72.499 57.794 73.326 57.727 74.177 C55.327 75.377 53.834 75.292 51.157 75.275 C50.261 75.271 49.365 75.268 48.442 75.265 C47.036 75.252 47.036 75.252 45.602 75.24 C44.657 75.235 43.713 75.23 42.739 75.226 C40.402 75.214 38.065 75.198 35.727 75.177 C35.774 74.248 35.82 73.318 35.868 72.361 C36.084 64.957 36.169 60.186 31.727 54.177 C31.511 53.473 31.294 52.769 31.071 52.044 C29.761 49.766 29.761 49.766 26.251 49.568 C24.869 49.501 23.486 49.455 22.102 49.427 C21.043 49.383 21.043 49.383 19.962 49.337 C18.217 49.266 16.472 49.219 14.727 49.177 C14.869 51.115 15.015 53.052 15.165 54.99 C15.246 56.068 15.327 57.147 15.411 58.259 C15.629 61.237 15.629 61.237 16.727 64.177 C18.707 63.682 18.707 63.682 20.727 63.177 C21.057 66.807 21.387 70.437 21.727 74.177 C17.251 74.575 12.774 74.884 8.29 75.177 C7.01 75.292 5.731 75.406 4.413 75.525 C1.021 75.723 -1.947 75.884 -5.273 75.177 C-6.999 72.538 -6.832 70.21 -6.273 67.177 C-5.148 64.677 -5.148 64.677 -3.273 63.177 C-1.623 63.177 0.027 63.177 1.727 63.177 C1.727 46.017 1.727 28.857 1.727 11.177 C-0.253 11.177 -2.233 11.177 -4.273 11.177 C-6.273 9.177 -6.273 9.177 -6.284 7.267 C-5.199 0.064 -5.199 0.064 0 0 Z M14.727 13.177 C14.034 15.681 14.034 15.681 14.239 18.622 C14.255 19.699 14.271 20.775 14.288 21.884 C14.33 23.012 14.372 24.14 14.415 25.302 C14.437 26.438 14.46 27.573 14.483 28.743 C14.542 31.556 14.625 34.366 14.727 37.177 C18.206 37.264 21.685 37.317 25.165 37.365 C26.158 37.39 27.151 37.415 28.175 37.441 C29.591 37.455 29.591 37.455 31.036 37.47 C31.91 37.486 32.785 37.501 33.686 37.518 C34.36 37.405 35.033 37.293 35.727 37.177 C36.057 36.187 36.387 35.197 36.727 34.177 C37.717 33.847 38.707 33.517 39.727 33.177 C41.229 30.174 41.034 27.095 41.102 23.802 C41.14 23.129 41.177 22.456 41.216 21.763 C41.282 18.008 41.037 16.502 38.407 13.747 C32.057 10.026 21.281 9.545 14.727 13.177 Z " fill="#ffffff" transform="translate(429.272705078125,301.822998046875)" id="SvgjsPath1004" class=""></path>
<path d="M0 0 C0.889 0.043 1.779 0.085 2.695 0.129 C4.076 0.212 4.076 0.212 5.484 0.297 C6.42 0.337 7.356 0.377 8.32 0.418 C13.455 0.695 13.455 0.695 15.234 1.047 C15.234 1.707 15.234 2.367 15.234 3.047 C15.894 3.377 16.554 3.707 17.234 4.047 C17.568 5.714 17.901 7.38 18.234 9.047 C18.894 9.377 19.554 9.707 20.234 10.047 C21.291 11.996 22.282 13.982 23.234 15.984 C25.254 20.354 25.254 20.354 28.234 24.047 C27.904 24.707 27.574 25.367 27.234 26.047 C27.894 26.047 28.554 26.047 29.234 26.047 C30.305 27.945 30.305 27.945 31.359 30.422 C31.713 31.234 32.066 32.046 32.43 32.883 C33.234 35.047 33.234 35.047 33.234 37.047 C33.894 37.047 34.554 37.047 35.234 37.047 C36.016 38.727 36.016 38.727 36.734 40.922 C37.655 43.714 38.111 44.924 40.234 47.047 C40.564 48.037 40.894 49.027 41.234 50.047 C41.564 37.177 41.894 24.307 42.234 11.047 C40.254 11.047 38.274 11.047 36.234 11.047 C34.479 8.892 34.252 7.14 33.734 4.422 C33.899 3.638 34.064 2.854 34.234 2.047 C39.549 -0.511 44.803 -0.192 50.547 0.047 C51.465 0.053 52.384 0.06 53.33 0.066 C55.787 0.164 57.897 0.279 60.234 1.047 C61.418 4.144 61.281 6.167 61.109 9.422 C60.821 9.958 60.532 10.494 60.234 11.047 C58.568 11.047 56.901 11.047 55.234 11.047 C53.833 14.45 54.136 18.076 54.172 21.699 C54.181 23.038 54.189 24.376 54.198 25.715 C54.204 26.412 54.21 27.11 54.216 27.829 C54.305 38.389 54.302 48.933 53.797 59.484 C53.758 60.352 53.718 61.221 53.678 62.115 C53.366 67.915 53.366 67.915 52.234 69.047 C49.926 69.225 47.611 69.315 45.297 69.359 C44.03 69.397 42.763 69.434 41.457 69.473 C40.394 69.332 39.33 69.192 38.234 69.047 C36.918 67.152 36.918 67.152 36.234 65.047 C35.574 64.387 34.914 63.727 34.234 63.047 C33.492 61.923 32.786 60.774 32.109 59.609 C31.756 59.013 31.403 58.416 31.039 57.801 C30.234 56.047 30.234 56.047 30.234 53.047 C29.244 52.552 29.244 52.552 28.234 52.047 C28.729 51.057 28.729 51.057 29.234 50.047 C28.574 50.047 27.914 50.047 27.234 50.047 C26.199 48.438 26.199 48.438 25.172 46.297 C24.83 45.601 24.489 44.905 24.137 44.188 C23.234 42.047 23.234 42.047 22.738 39.844 C22.572 39.251 22.406 38.658 22.234 38.047 C21.574 37.717 20.914 37.387 20.234 37.047 C18.596 34.589 17.309 32.238 16.234 29.484 C15.202 26.968 13.88 25.194 12.234 23.047 C11.904 22.057 11.574 21.067 11.234 20.047 C11.234 32.587 11.234 45.127 11.234 58.047 C12.884 58.047 14.534 58.047 16.234 58.047 C17.833 59.645 17.404 61.348 17.422 63.547 C17.436 64.362 17.45 65.176 17.465 66.016 C17.389 66.686 17.313 67.356 17.234 68.047 C14.805 69.261 13.227 69.176 10.516 69.18 C9.584 69.181 8.652 69.182 7.691 69.184 C6.228 69.178 6.228 69.178 4.734 69.172 C3.271 69.178 3.271 69.178 1.777 69.184 C0.379 69.182 0.379 69.182 -1.047 69.18 C-1.903 69.179 -2.76 69.177 -3.643 69.176 C-5.766 69.047 -5.766 69.047 -7.766 68.047 C-8.641 64.734 -8.641 64.734 -8.766 61.047 C-7.016 58.547 -7.016 58.547 -4.766 57.047 C-3.776 57.377 -2.786 57.707 -1.766 58.047 C-1.766 42.537 -1.766 27.027 -1.766 11.047 C-3.746 11.047 -5.726 11.047 -7.766 11.047 C-8.711 9.148 -8.711 9.148 -8.891 6.672 C-9.018 5.454 -9.018 5.454 -9.148 4.211 C-9.022 3.497 -8.896 2.783 -8.766 2.047 C-5.781 0.089 -3.517 -0.171 0 0 Z " fill="#ffffff" transform="translate(448.765625,210.953125)" id="SvgjsPath1005" class=""></path>
<path d="M0 0 C1.468 -0.039 1.468 -0.039 2.965 -0.078 C7.463 -0.162 11.962 -0.228 16.461 -0.274 C18.832 -0.306 21.202 -0.354 23.572 -0.418 C26.989 -0.509 30.404 -0.548 33.822 -0.576 C34.876 -0.614 35.931 -0.652 37.017 -0.692 C44.259 -0.672 44.259 -0.672 47.541 1.936 C49.309 3.958 50.845 6.059 52.408 8.24 C53.599 9.14 53.599 9.14 54.814 10.057 C57.636 13.923 56.954 18.531 56.904 23.174 C56.905 24.244 56.907 25.314 56.908 26.417 C56.907 28.679 56.895 30.941 56.874 33.203 C56.845 36.662 56.854 40.119 56.867 43.578 C56.86 45.777 56.852 47.976 56.841 50.174 C56.844 51.208 56.847 52.241 56.85 53.306 C56.73 62.481 56.73 62.481 53.408 66.24 C52.748 66.24 52.088 66.24 51.408 66.24 C51.16 67.169 50.913 68.097 50.658 69.053 C49.408 72.24 49.408 72.24 46.957 73.917 C42.314 75.648 38.286 75.653 33.373 75.604 C31.938 75.605 31.938 75.605 30.475 75.605 C28.46 75.603 26.445 75.593 24.431 75.577 C21.352 75.553 18.274 75.556 15.195 75.563 C13.233 75.557 11.272 75.55 9.31 75.541 C8.392 75.542 7.474 75.543 6.529 75.544 C-1.767 75.452 -1.767 75.452 -5.592 73.24 C-6.327 71.112 -6.327 71.112 -6.342 68.678 C-6.378 67.872 -6.414 67.067 -6.452 66.237 C-6.168 65.578 -5.884 64.919 -5.592 64.24 C-3.855 64.263 -3.855 64.263 -2.083 64.285 C-0.931 63.94 0.221 63.596 1.408 63.24 C2.531 59.736 2.24 56.176 2.126 52.53 C2.119 51.45 2.111 50.371 2.104 49.26 C2.071 45.794 1.989 42.331 1.908 38.865 C1.881 36.535 1.858 34.204 1.837 31.873 C1.787 27.603 1.731 23.333 1.632 19.063 C1.604 17.772 1.604 17.772 1.575 16.455 C1.485 14.066 1.485 14.066 0.408 11.24 C-0.252 10.91 -0.912 10.58 -1.592 10.24 C-1.922 10.9 -2.252 11.56 -2.592 12.24 C-3.582 11.58 -4.572 10.92 -5.592 10.24 C-5.92 8.112 -5.92 8.112 -5.842 5.678 C-5.827 4.872 -5.811 4.067 -5.795 3.237 C-5.409 -0.557 -3.363 0.085 0 0 Z M15.408 13.24 C15.099 15.268 15.099 15.268 15.149 17.729 C15.143 18.683 15.136 19.637 15.13 20.621 C15.134 21.659 15.138 22.698 15.142 23.768 C15.14 24.827 15.138 25.886 15.136 26.978 C15.135 29.223 15.139 31.468 15.147 33.714 C15.158 37.16 15.147 40.605 15.134 44.051 C15.136 46.227 15.138 48.404 15.142 50.58 C15.138 51.617 15.134 52.653 15.13 53.721 C15.136 54.679 15.142 55.636 15.149 56.623 C15.151 57.468 15.152 58.314 15.154 59.184 C15.221 61.464 15.221 61.464 17.408 63.24 C20.635 63.743 23.896 63.657 27.158 63.678 C28.052 63.711 28.947 63.744 29.869 63.778 C31.18 63.788 31.18 63.788 32.517 63.799 C33.311 63.813 34.105 63.826 34.922 63.84 C38.614 62.95 41.193 61.278 43.408 58.24 C44.262 55.139 44.227 52.161 44.169 48.959 C44.174 47.623 44.174 47.623 44.18 46.259 C44.179 44.379 44.164 42.5 44.135 40.621 C44.095 37.749 44.114 34.882 44.14 32.01 C44.133 30.181 44.122 28.351 44.107 26.522 C44.114 25.666 44.121 24.811 44.128 23.93 C44.027 19.647 43.776 17.743 41.177 14.193 C38.207 12.099 36.966 11.633 33.396 11.717 C32.013 11.734 32.013 11.734 30.601 11.752 C29.175 11.808 29.175 11.808 27.72 11.865 C26.758 11.88 25.796 11.894 24.804 11.908 C19.945 11.851 19.945 11.851 15.408 13.24 Z M47.408 70.24 C48.408 72.24 48.408 72.24 48.408 72.24 Z " fill="#ffffff" transform="translate(38.59228515625,301.759521484375)" id="SvgjsPath1006" class=""></path>
<path d="M0 0 C10.56 0 21.12 0 32 0 C32 3.3 32 6.6 32 10 C31.34 10 30.68 10 30 10 C29.445 15.138 30.913 18.906 32.727 23.602 C34.277 27.738 35.634 31.925 37 36.125 C38.812 41.678 40.796 46.963 43.328 52.234 C44.312 54.819 44.136 57.272 44 60 C44.66 60.33 45.32 60.66 46 61 C48 62 50 63 52 64 C52.266 66.25 52.266 66.25 52.25 69 C52.258 70.361 52.258 70.361 52.266 71.75 C52.178 72.493 52.09 73.235 52 74 C49.415 75.292 47.694 75.038 44.809 74.914 C43.782 74.87 42.755 74.826 41.697 74.781 C40.084 74.704 40.084 74.704 38.438 74.625 C37.358 74.581 36.278 74.537 35.166 74.492 C27.128 74.128 27.128 74.128 26 73 C25.526 69.935 25.372 67.046 26 64 C29 62.438 29 62.438 32 62 C31.643 58.548 31.025 55.856 29 53 C24.691 51.523 20.516 51.699 16 51.812 C14.799 51.769 13.597 51.726 12.359 51.682 C8.921 51.707 6.231 51.811 3 53 C0.949 56.2 0.348 59.247 0 63 C0.795 63.108 1.591 63.217 2.41 63.328 C3.692 63.661 3.692 63.661 5 64 C6.692 67.237 7.214 69.091 6.371 72.668 C5.919 73.438 5.466 74.207 5 75 C2.602 75.599 2.602 75.599 -0.375 75.559 C-1.442 75.552 -2.51 75.544 -3.609 75.537 C-5.288 75.488 -5.288 75.488 -7 75.438 C-8.119 75.432 -9.238 75.426 -10.391 75.42 C-18.706 75.294 -18.706 75.294 -21 73 C-21.666 67.755 -21.666 67.755 -21 65 C-18.188 63.312 -18.188 63.312 -15 62 C-12.144 58.117 -10.844 53.821 -9.5 49.25 C-9.063 47.808 -8.626 46.367 -8.188 44.926 C-7.981 44.241 -7.775 43.556 -7.562 42.85 C-6.076 37.962 -4.387 33.137 -2.742 28.301 C-2.286 26.951 -1.831 25.6 -1.375 24.25 C-1.157 23.611 -0.938 22.972 -0.713 22.314 C1.03 17.246 1.03 17.246 2 12 C1.34 11.34 0.68 10.68 0 10 C0 6.7 0 3.4 0 0 Z M15 14 C14.708 16.079 14.55 18.158 14.379 20.25 C14.254 20.827 14.129 21.405 14 22 C13.34 22 12.68 22 12 22 C11.375 23.941 11.375 23.941 11 26.312 C10.401 29.636 9.935 31.098 8 34 C6.937 37.04 6.937 37.04 7 40 C8.956 41.093 8.956 41.093 12 41 C12.822 41.072 13.645 41.144 14.492 41.219 C18.276 41.497 18.276 41.497 22 41 C23.635 38.912 23.635 38.912 24 36 C23.263 32.636 23.263 32.636 21.812 29.188 C21.339 27.962 20.866 26.736 20.379 25.473 C19.924 24.327 19.469 23.181 19 22 C18.413 20.376 17.829 18.752 17.25 17.125 C16.837 16.094 16.425 15.062 16 14 C15.67 14 15.34 14 15 14 Z " fill="#ffffff" transform="translate(363,302)" id="SvgjsPath1007" class=""></path>
<path d="M0 0 C1.617 -0.005 1.617 -0.005 3.266 -0.01 C4.439 -0.008 5.612 -0.006 6.82 -0.003 C8.015 -0.004 9.21 -0.005 10.441 -0.006 C12.973 -0.007 15.505 -0.005 18.037 -0.001 C21.928 0.004 25.82 -0.001 29.711 -0.007 C32.164 -0.007 34.617 -0.005 37.07 -0.003 C38.243 -0.005 39.416 -0.007 40.625 -0.01 C41.702 -0.006 42.78 -0.003 43.891 0 C44.845 0.001 45.799 0.002 46.782 0.002 C48.945 0.129 48.945 0.129 49.945 1.129 C50.032 2.764 50.052 4.403 50.043 6.04 C50.04 7.029 50.037 8.018 50.033 9.038 C50.021 10.599 50.021 10.599 50.008 12.192 C50.003 13.237 49.999 14.281 49.994 15.358 C49.982 17.948 49.966 20.539 49.945 23.129 C49.285 23.129 48.625 23.129 47.945 23.129 C47.615 23.789 47.285 24.449 46.945 25.129 C43.235 25.52 42.147 25.264 38.945 23.129 C38.951 21.254 38.998 19.378 39.07 17.504 C38.913 14.429 38.913 14.429 36.945 12.129 C30.188 10.514 22.789 11.544 15.945 12.129 C15.945 18.729 15.945 25.329 15.945 32.129 C18.527 32.004 18.527 32.004 21.16 31.875 C23.401 31.772 25.642 31.67 27.883 31.567 C29.019 31.511 30.155 31.455 31.326 31.397 C32.406 31.349 33.485 31.3 34.598 31.25 C35.598 31.203 36.598 31.156 37.629 31.108 C39.945 31.129 39.945 31.129 40.945 32.129 C41.044 33.794 41.075 35.462 41.07 37.129 C41.074 38.491 41.074 38.491 41.078 39.879 C40.945 42.129 40.945 42.129 39.945 43.129 C38.249 43.192 36.549 43.189 34.852 43.157 C33.307 43.138 33.307 43.138 31.73 43.12 C29.54 43.084 27.35 43.045 25.16 43.002 C24.13 42.991 23.1 42.981 22.039 42.969 C20.611 42.944 20.611 42.944 19.154 42.918 C18.425 42.988 17.696 43.058 16.945 43.129 C15.827 45.366 15.751 46.778 15.629 49.262 C15.587 50.068 15.545 50.874 15.502 51.704 C15.463 52.545 15.423 53.387 15.383 54.254 C15.34 55.104 15.296 55.953 15.252 56.829 C15.146 58.929 15.045 61.029 14.945 63.129 C26 64.355 26 64.355 36.945 63.129 C39.724 59.214 39.352 55.78 38.945 51.129 C39.945 50.129 39.945 50.129 41.977 49.997 C42.791 49.999 43.606 50.002 44.445 50.004 C45.26 50.002 46.075 49.999 46.914 49.997 C48.945 50.129 48.945 50.129 49.945 51.129 C52.018 57.816 53.293 64.966 51.579 71.841 C49.622 74.582 48.037 75.086 44.763 75.654 C36.025 76.562 27.17 75.983 18.426 75.402 C12.843 75.034 7.286 75.099 1.695 75.192 C-0.888 75.185 -3.471 75.159 -6.055 75.129 C-6.136 73.505 -6.194 71.88 -6.242 70.254 C-6.277 69.349 -6.312 68.445 -6.348 67.512 C-6.203 66.333 -6.203 66.333 -6.055 65.129 C-3.055 63.129 -3.055 63.129 0.945 63.129 C1.097 55.903 1.202 48.677 1.275 41.45 C1.305 38.99 1.346 36.53 1.398 34.07 C1.47 30.54 1.505 27.011 1.531 23.481 C1.578 21.823 1.578 21.823 1.625 20.132 C1.626 17.334 1.617 14.846 0.945 12.129 C-1.91 10.302 -1.91 10.302 -5.055 10.129 C-6.055 9.129 -6.055 9.129 -6.188 7.317 C-6.185 6.595 -6.182 5.873 -6.18 5.129 C-6.182 4.408 -6.185 3.686 -6.188 2.942 C-5.907 -0.885 -3.229 0.003 0 0 Z " fill="#f5f5f5" transform="translate(116.0546875,301.87060546875)" id="SvgjsPath1008" class=""></path>
<path d="M0 0 C3.658 -0.165 7.233 -0.077 10.891 0.102 C12.166 0.13 13.44 0.157 14.754 0.186 C24.168 0.442 24.168 0.442 25.391 1.665 C25.559 3.59 25.559 3.59 25.578 5.977 C25.592 6.757 25.606 7.537 25.621 8.34 C25.391 10.665 25.391 10.665 24.254 12.77 C23.827 13.708 23.827 13.708 23.391 14.665 C24.051 15.655 24.711 16.645 25.391 17.665 C25.983 19.293 26.521 20.941 27.016 22.602 C27.406 23.884 27.406 23.884 27.805 25.192 C28.391 27.665 28.391 27.665 28.391 31.665 C29.051 31.665 29.711 31.665 30.391 31.665 C31.522 34.387 32.516 37.063 33.453 39.852 C33.722 40.621 33.991 41.39 34.268 42.182 C35.356 45.343 36.334 48.362 36.949 51.653 C37.095 52.317 37.241 52.981 37.391 53.665 C38.381 54.16 38.381 54.16 39.391 54.665 C39.016 56.727 39.016 56.727 38.391 58.665 C39.174 58.541 39.958 58.417 40.766 58.29 C41.632 58.413 42.498 58.537 43.391 58.665 C45.137 62.237 45.663 63.847 44.391 67.665 C39.816 70.424 34.739 69.994 29.578 69.852 C28.253 69.88 28.253 69.88 26.9 69.909 C22.601 69.779 22.601 69.779 20.391 68.665 C19.384 65.569 19.539 62.788 20.391 59.665 C22.891 58.102 22.891 58.102 25.391 57.665 C25.081 56.922 24.772 56.18 24.453 55.415 C23.391 52.665 23.391 52.665 23.129 50.53 C22.885 49.915 22.642 49.299 22.391 48.665 C18.814 47.737 15.072 48.017 11.391 48.04 C9.836 47.991 9.836 47.991 8.25 47.942 C5.49 47.938 3.061 47.959 0.391 48.665 C-0.764 51.639 -0.764 51.639 -0.609 54.665 C-1.599 54.665 -2.589 54.665 -3.609 54.665 C-3.279 55.655 -2.949 56.645 -2.609 57.665 C-1.286 58.037 0.048 58.371 1.391 58.665 C2.882 61.647 2.51 64.381 2.391 67.665 C0.01 70.046 -5.832 69.146 -9.047 69.29 C-10.027 69.341 -11.008 69.393 -12.018 69.446 C-12.954 69.49 -13.891 69.533 -14.855 69.579 C-15.718 69.619 -16.581 69.66 -17.47 69.702 C-19.609 69.665 -19.609 69.665 -21.609 68.665 C-21.957 61.36 -21.957 61.36 -20.609 58.665 C-19.784 58.726 -18.959 58.788 -18.109 58.852 C-16.872 58.759 -16.872 58.759 -15.609 58.665 C-14.98 56.372 -14.98 56.372 -14.609 53.665 C-12.191 44.865 -9.186 36.251 -6.109 27.665 C-5.687 26.472 -5.264 25.28 -4.828 24.051 C-4.083 21.982 -3.318 19.92 -2.516 17.872 C-1.485 15.275 -1.485 15.275 -0.609 11.665 C-1.104 11.256 -1.599 10.847 -2.109 10.426 C-3.92 8.299 -4.045 7.273 -4.141 4.512 C-3.6 1.303 -3.208 0.817 0 0 Z M10.391 15.665 C9.988 16.933 9.988 16.933 9.578 18.227 C8.391 21.665 8.391 21.665 6.766 25.165 C5.379 28.694 5.221 30.931 5.391 34.665 C5.061 35.655 4.731 36.645 4.391 37.665 C9.011 37.665 13.631 37.665 18.391 37.665 C17.855 29.802 14.744 22.195 10.391 15.665 Z " fill="#ffffff" transform="translate(642.609375,210.33544921875)" id="SvgjsPath1009" class=""></path>
<path d="M0 0 C2.018 -0.584 2.018 -0.584 4.703 -0.696 C6.205 -0.767 6.205 -0.767 7.737 -0.839 C12.304 -0.937 16.869 -1.02 21.438 -1.028 C23.857 -1.051 26.276 -1.119 28.693 -1.231 C44.875 -1.978 44.875 -1.978 50 1 C53.118 6.613 52.347 13.82 50.968 19.892 C50 22 50 22 46.563 23.781 C43 24 43 24 40 22 C39.523 19.871 39.523 19.871 39.375 17.438 C39.396 14.419 39.396 14.419 38 12 C36.584 11.913 35.164 11.893 33.746 11.902 C32.465 11.907 32.465 11.907 31.158 11.912 C29.811 11.925 29.811 11.925 28.438 11.938 C27.536 11.942 26.634 11.947 25.705 11.951 C23.47 11.963 21.235 11.979 19 12 C17.654 17.767 16.655 22.433 19 28 C25.47 30.331 33.036 29.354 39.775 28.822 C40.876 28.91 40.876 28.91 42 29 C43.12 32.36 43.445 34.76 42.945 38.253 C42 40 42 40 39.867 40.758 C36.886 41.059 33.996 41.105 31 41.062 C29.445 41.092 29.445 41.092 27.859 41.123 C25.226 41.156 22.627 41.185 20 41 C19.505 40.505 19.505 40.505 19 40 C18.67 45.94 18.34 51.88 18 58 C21.484 58.269 24.948 58.467 28.438 58.625 C29.431 58.709 30.424 58.793 31.447 58.879 C35.321 59.016 35.321 59.016 39 58 C40.271 54.649 40.086 51.538 40 48 C41 47 41 47 43.066 46.902 C44.302 46.92 44.302 46.92 45.562 46.938 C46.389 46.947 47.215 46.956 48.066 46.965 C48.704 46.976 49.343 46.988 50 47 C50.289 50.477 50.467 53.952 50.625 57.438 C50.709 58.431 50.793 59.424 50.879 60.447 C50.974 63.244 50.961 65.368 50 68 C46.185 69.151 43.93 69.16 40 69 C38.549 69.011 37.098 69.03 35.647 69.057 C31.471 69.129 27.297 69.141 23.12 69.13 C20.478 69.125 17.837 69.13 15.195 69.137 C13.516 69.136 11.836 69.135 10.156 69.133 C8.972 69.136 8.972 69.136 7.764 69.139 C2.23 69.115 2.23 69.115 0 68 C-0.74 62.264 -0.74 62.264 0 60 C0.987 59.671 1.974 59.342 2.991 59.004 C6.121 57.387 6.121 57.387 6.575 55.007 C6.798 52.3 6.831 49.649 6.797 46.934 C6.803 45.944 6.808 44.954 6.814 43.934 C6.818 41.842 6.807 39.75 6.782 37.657 C6.75 34.445 6.782 31.238 6.82 28.025 C6.816 25.995 6.809 23.964 6.797 21.934 C6.815 20.487 6.815 20.487 6.834 19.011 C6.781 16.524 6.721 14.381 6 12 C3.093 10.439 3.093 10.439 0 10 C-1.146 6.485 -1.482 3.432 0 0 Z " fill="#ffffff" transform="translate(320,211)" id="SvgjsPath1010" class=""></path>
<path d="M0 0 C2.034 -0.016 4.057 -0.102 6.089 -0.19 C13.215 -0.25 17.522 0.115 22.753 5.222 C26.3 9.313 26.3 9.313 26.3 11.796 C26.96 11.796 27.62 11.796 28.3 11.796 C28.784 14.651 29.093 17.356 29.3 20.234 C29.389 21.036 29.478 21.839 29.569 22.665 C29.737 24.98 29.737 24.98 29.3 28.796 C26.612 29.894 26.612 29.894 23.3 29.796 C22.385 29.773 21.469 29.75 20.526 29.726 C19.792 29.419 19.057 29.112 18.3 28.796 C17.261 26.179 17.261 26.179 16.675 22.921 C15.768 17.617 15.768 17.617 12.3 13.796 C10.133 13.337 10.133 13.337 7.737 13.398 C6.858 13.394 5.979 13.39 5.073 13.386 C3.7 13.403 3.7 13.403 2.3 13.421 C1.385 13.41 0.469 13.398 -0.474 13.386 C-1.353 13.39 -2.232 13.394 -3.138 13.398 C-3.941 13.401 -4.744 13.404 -5.571 13.408 C-8.263 13.899 -9.009 14.674 -10.7 16.796 C-11.159 18.853 -11.159 18.853 -11.104 21.144 C-11.123 22.455 -11.123 22.455 -11.143 23.793 C-11.14 24.734 -11.137 25.675 -11.134 26.644 C-11.142 28.095 -11.142 28.095 -11.15 29.576 C-11.156 31.621 -11.155 33.666 -11.146 35.711 C-11.138 38.85 -11.167 41.987 -11.198 45.126 C-11.2 47.111 -11.199 49.096 -11.196 51.081 C-11.208 52.024 -11.219 52.967 -11.23 53.938 C-11.221 54.809 -11.212 55.68 -11.202 56.578 C-11.202 57.346 -11.202 58.114 -11.201 58.905 C-10.875 60.963 -10.875 60.963 -8.901 62.041 C-5.562 63.187 -2.251 63.125 1.237 63.109 C1.94 63.125 2.644 63.141 3.368 63.157 C7.886 63.162 10.693 62.526 14.3 59.796 C17.213 56.883 16.633 54.095 16.761 50.109 C17.3 47.796 17.3 47.796 19.108 46.48 C22.493 45.424 24.927 45.842 28.3 46.796 C29.237 48.734 29.237 48.734 29.3 51.796 C29.324 52.616 29.349 53.436 29.374 54.281 C29.507 61.381 29.507 61.381 28.3 63.796 C27.64 63.796 26.98 63.796 26.3 63.796 C25.99 64.745 25.681 65.694 25.362 66.671 C24.3 69.796 24.3 69.796 21.3 71.796 C20.723 72.324 20.146 72.852 19.552 73.396 C16.398 75.357 13.963 75.185 10.269 75.195 C9.596 75.197 8.923 75.2 8.229 75.203 C6.811 75.205 5.392 75.2 3.973 75.187 C1.807 75.171 -0.358 75.187 -2.524 75.206 C-3.906 75.204 -5.287 75.2 -6.669 75.195 C-7.921 75.191 -9.174 75.188 -10.464 75.184 C-13.875 74.775 -15.321 74.235 -17.7 71.796 C-17.7 71.136 -17.7 70.476 -17.7 69.796 C-18.36 69.466 -19.02 69.136 -19.7 68.796 C-23.614 65.234 -25.013 62.923 -25.331 57.604 C-25.357 55.553 -25.355 53.5 -25.329 51.448 C-25.332 50.359 -25.334 49.27 -25.336 48.147 C-25.335 45.85 -25.322 43.553 -25.297 41.256 C-25.263 37.742 -25.276 34.23 -25.296 30.716 C-25.289 28.481 -25.279 26.246 -25.267 24.011 C-25.272 22.962 -25.277 21.913 -25.282 20.832 C-25.208 16.294 -25.151 13.552 -22.79 9.595 C-20.7 7.796 -20.7 7.796 -18.7 7.796 C-18.37 6.806 -18.04 5.816 -17.7 4.796 C-12.429 -0.48 -7.105 0.018 0 0 Z " fill="#ffffff" transform="translate(307.7001953125,301.203857421875)" id="SvgjsPath1011" class=""></path>
<path d="M0 0 C1.394 -0.027 2.788 -0.067 4.181 -0.123 C15.816 -0.582 15.816 -0.582 19.864 2.054 C21.748 3.991 21.748 3.991 23.228 5.946 C23.62 6.446 24.012 6.945 24.416 7.46 C25.076 7.46 25.736 7.46 26.416 7.46 C30.046 14.316 29.891 20.907 28.416 28.46 C25.575 29.88 23.358 29.648 20.252 29.233 C18.416 28.46 18.416 28.46 17.518 26.749 C17.044 24.659 16.723 22.58 16.416 20.46 C15.286 17.847 14.01 15.851 12.416 13.46 C8.792 12.773 5.098 12.951 1.416 12.96 C0.393 12.932 -0.631 12.903 -1.685 12.874 C-2.662 12.871 -3.64 12.869 -4.646 12.866 C-5.545 12.859 -6.443 12.852 -7.369 12.845 C-9.753 13.245 -9.753 13.245 -10.876 15.436 C-11.822 19.479 -11.87 23.304 -11.849 27.444 C-11.852 28.729 -11.852 28.729 -11.855 30.039 C-11.857 31.841 -11.853 33.643 -11.844 35.445 C-11.834 38.214 -11.844 40.983 -11.857 43.753 C-11.856 45.504 -11.853 47.256 -11.849 49.007 C-11.853 49.839 -11.857 50.671 -11.862 51.529 C-11.845 53.508 -11.725 55.486 -11.584 57.46 C-10.924 57.79 -10.264 58.12 -9.584 58.46 C-9.584 59.12 -9.584 59.78 -9.584 60.46 C-5.523 62.632 -1.35 62.94 3.166 63.21 C3.851 63.265 4.535 63.321 5.24 63.378 C6.962 63.49 8.691 63.485 10.416 63.46 C10.911 62.47 10.911 62.47 11.416 61.46 C12.406 61.13 13.396 60.8 14.416 60.46 C15.414 57.735 15.414 57.735 16.041 54.522 C17.361 48.571 17.361 48.571 18.416 46.46 C20.448 46.229 20.448 46.229 22.916 46.272 C23.731 46.279 24.546 46.285 25.385 46.292 C27.416 46.46 27.416 46.46 28.416 47.46 C29.738 54.312 30.208 61.304 26.416 67.46 C23.854 68.272 23.854 68.272 21.416 68.46 C20.233 70.326 20.233 70.326 19.416 72.46 C18.275 74.075 18.275 74.075 16.416 75.46 C12.197 75.946 7.998 75.737 3.757 75.589 C1.687 75.523 -0.38 75.505 -2.451 75.489 C-9.424 75.281 -14.506 75.114 -19.589 70.028 C-20.584 68.46 -20.584 68.46 -20.584 65.46 C-21.556 65.02 -21.556 65.02 -22.548 64.571 C-23.22 64.205 -23.892 63.838 -24.584 63.46 C-25.112 61.337 -25.112 61.337 -25.149 58.678 C-25.171 57.683 -25.194 56.688 -25.216 55.663 C-25.218 54.583 -25.219 53.503 -25.22 52.39 C-25.231 51.279 -25.242 50.169 -25.254 49.025 C-25.27 46.67 -25.275 44.314 -25.27 41.959 C-25.271 38.369 -25.331 34.784 -25.394 31.194 C-25.402 28.905 -25.407 26.616 -25.408 24.327 C-25.432 23.259 -25.455 22.191 -25.479 21.091 C-25.397 14.328 -24.124 10.764 -19.379 5.89 C-17.584 4.46 -17.584 4.46 -14.584 3.46 C-14.584 2.8 -14.584 2.14 -14.584 1.46 C-10.289 -0.687 -4.724 0.069 0 0 Z " fill="#ffffff" transform="translate(526.583740234375,301.5400390625)" id="SvgjsPath1012" class=""></path>
<path d="M0 0 C1.004 -0.009 1.004 -0.009 2.028 -0.019 C3.436 -0.026 4.845 -0.023 6.253 -0.01 C8.401 0.004 10.544 -0.03 12.691 -0.068 C14.065 -0.069 15.439 -0.067 16.812 -0.062 C18.053 -0.063 19.294 -0.064 20.572 -0.065 C24.771 0.73 26.281 2.266 28.906 5.566 C28.906 6.226 28.906 6.886 28.906 7.566 C29.896 7.896 30.886 8.226 31.906 8.566 C35.283 13.595 35.307 17.972 35.199 23.797 C35.195 24.669 35.191 25.541 35.186 26.44 C35.17 29.212 35.132 31.983 35.094 34.754 C35.079 36.628 35.065 38.503 35.053 40.377 C35.028 43.801 34.996 47.225 34.954 50.649 C34.926 52.955 34.906 55.261 34.906 57.566 C31.906 59.566 31.906 59.566 29.906 59.566 C29.906 60.886 29.906 62.206 29.906 63.566 C27.19 66.507 25.469 67.478 21.496 68.1 C20.22 68.111 18.944 68.122 17.629 68.133 C16.94 68.139 16.251 68.145 15.541 68.152 C14.09 68.159 12.638 68.156 11.187 68.143 C8.978 68.129 6.773 68.163 4.564 68.201 C3.148 68.202 1.732 68.2 0.316 68.195 C-1.6 68.196 -1.6 68.196 -3.554 68.198 C-7.885 67.425 -10.189 65.703 -13.094 62.566 C-13.575 62.06 -14.056 61.554 -14.552 61.032 C-18.618 56.149 -18.841 51.691 -18.793 45.504 C-18.8 44.554 -18.807 43.604 -18.815 42.625 C-18.822 40.625 -18.817 38.624 -18.801 36.624 C-18.781 33.575 -18.821 30.53 -18.865 27.48 C-18.866 25.53 -18.862 23.579 -18.855 21.629 C-18.871 20.725 -18.886 19.82 -18.902 18.888 C-18.798 13.209 -17.755 10.086 -13.707 6.035 C-13.175 5.55 -12.642 5.066 -12.094 4.566 C-11.291 3.774 -10.489 2.981 -9.662 2.164 C-6.298 0.071 -3.946 0.035 0 0 Z M-3.094 11.566 C-3.094 12.226 -3.094 12.886 -3.094 13.566 C-4.084 13.896 -5.074 14.226 -6.094 14.566 C-6.404 17.395 -6.513 20.003 -6.492 22.836 C-6.495 23.668 -6.498 24.501 -6.501 25.359 C-6.503 27.125 -6.497 28.891 -6.485 30.657 C-6.469 33.357 -6.485 36.056 -6.504 38.756 C-6.502 40.47 -6.498 42.184 -6.492 43.898 C-6.498 44.706 -6.504 45.513 -6.511 46.345 C-6.469 49.645 -6.339 52.112 -4.756 55.046 C-2.012 57.556 0.587 57.689 4.137 57.664 C4.939 57.661 5.742 57.658 6.568 57.654 C7.402 57.646 8.235 57.638 9.094 57.629 C10.361 57.622 10.361 57.622 11.654 57.615 C13.738 57.603 15.822 57.586 17.906 57.566 C17.906 56.906 17.906 56.246 17.906 55.566 C19.391 55.071 19.391 55.071 20.906 54.566 C23.394 51.12 23.15 47.706 23.137 43.57 C23.136 42.9 23.136 42.229 23.135 41.538 C23.132 40.124 23.124 38.709 23.112 37.295 C23.094 35.14 23.092 32.985 23.092 30.83 C23.672 20.906 23.672 20.906 19.918 12.273 C15.764 9.919 12.404 10.086 7.719 10.254 C6.9 10.264 6.08 10.273 5.236 10.283 C0.934 10.271 0.934 10.271 -3.094 11.566 Z " fill="#ffffff" transform="translate(114.09375,211.43359375)" id="SvgjsPath1013" class=""></path>
<path d="M0 0 C0.805 0.001 1.61 0.002 2.44 0.003 C3.269 -0.002 4.098 -0.006 4.951 -0.01 C6.707 -0.016 8.463 -0.016 10.22 -0.012 C12.9 -0.009 15.578 -0.032 18.258 -0.058 C19.965 -0.06 21.671 -0.061 23.377 -0.06 C24.177 -0.069 24.976 -0.078 25.799 -0.088 C30.444 -0.049 33.29 0.405 37.108 3.304 C37.839 3.822 38.569 4.34 39.322 4.874 C42.68 7.777 44.807 9.961 45.797 14.373 C46.002 17.863 45.955 21.25 45.795 24.741 C45.779 26.534 45.779 26.534 45.762 28.364 C45.614 34.736 45.614 34.736 45.108 37.304 C44.118 37.634 43.128 37.964 42.108 38.304 C41.613 39.294 41.613 39.294 41.108 40.304 C40.448 40.304 39.788 40.304 39.108 40.304 C39.108 41.294 39.108 42.284 39.108 43.304 C36.898 45.98 35.102 47.176 31.633 47.622 C28.677 47.697 25.75 47.652 22.795 47.554 C21.769 47.535 20.742 47.517 19.684 47.499 C17.158 47.452 14.633 47.386 12.108 47.304 C12.016 48.947 11.949 50.592 11.893 52.237 C11.853 53.153 11.813 54.069 11.772 55.012 C11.883 55.768 11.994 56.525 12.108 57.304 C14.426 58.02 16.761 58.686 19.108 59.304 C20.347 62.263 20.917 65.172 20.108 68.304 C15.584 70.134 9.817 69.526 4.983 69.554 C4.077 69.574 3.171 69.595 2.237 69.616 C1.367 69.621 0.497 69.626 -0.4 69.632 C-1.19 69.641 -1.981 69.65 -2.795 69.66 C-5.437 69.211 -6.313 68.44 -7.892 66.304 C-8.145 63.209 -8.291 61.102 -6.892 58.304 C-3.83 58.179 -3.83 58.179 -0.892 58.304 C-0.908 51.789 -0.963 45.275 -1.045 38.76 C-1.068 36.543 -1.082 34.325 -1.088 32.108 C-1.097 28.925 -1.138 25.744 -1.185 22.561 C-1.181 21.565 -1.177 20.57 -1.173 19.544 C-1.227 17.027 -1.291 14.748 -1.892 12.304 C-4.249 10.577 -4.249 10.577 -6.892 10.304 C-7.892 9.304 -7.892 9.304 -8.08 5.866 C-7.765 -0.114 -5.4 0.069 0 0 Z M11.108 11.304 C11.108 19.224 11.108 27.144 11.108 35.304 C15.656 35.489 15.656 35.489 20.295 35.679 C21.242 35.733 22.188 35.788 23.163 35.844 C27.743 35.957 27.743 35.957 31.837 34.154 C34.138 31.668 35.07 29.608 35.483 26.268 C35.359 25.269 35.235 24.27 35.108 23.241 C35.005 22.239 34.902 21.238 34.795 20.206 C34.046 17.042 33.043 14.911 31.108 12.304 C24.727 10.5 17.674 11.236 11.108 11.304 Z M42.108 38.304 C43.098 38.799 43.098 38.799 44.108 39.304 C43.118 39.799 43.118 39.799 42.108 40.304 C42.108 39.644 42.108 38.984 42.108 38.304 Z " fill="#ffffff" transform="translate(40.89204406738281,210.6964569091797)" id="SvgjsPath1014" class=""></path>
<path d="M0 0 C1.105 0.002 2.209 0.004 3.348 0.006 C4.501 0.018 5.655 0.03 6.844 0.043 C7.997 0.044 9.151 0.044 10.34 0.045 C18.922 0.09 18.922 0.09 22.344 1.23 C24.098 3.008 24.098 3.008 25.906 5.168 C27.675 7.264 29.404 9.29 31.344 11.23 C31.75 14.418 31.75 14.418 31.844 18.23 C31.895 19.489 31.947 20.747 32 22.043 C31.783 23.095 31.567 24.147 31.344 25.23 C28.5 26.73 28.5 26.73 25.344 27.23 C24.354 26.9 23.364 26.57 22.344 26.23 C22.344 25.57 22.344 24.91 22.344 24.23 C21.684 24.23 21.024 24.23 20.344 24.23 C20.344 21.59 20.344 18.95 20.344 16.23 C19.684 16.23 19.024 16.23 18.344 16.23 C17.984 15.581 17.624 14.931 17.254 14.262 C15.35 11.81 15.35 11.81 11.402 11.699 C9.862 11.689 8.321 11.7 6.781 11.73 C5.61 11.707 5.61 11.707 4.416 11.684 C1.885 11.652 1.885 11.652 -1.656 12.23 C-3.288 14.12 -3.288 14.12 -3.656 16.23 C-4.316 15.9 -4.976 15.57 -5.656 15.23 C-5.326 16.22 -4.996 17.21 -4.656 18.23 C-4.595 20.77 -4.588 23.282 -4.629 25.82 C-4.642 27.342 -4.654 28.863 -4.666 30.385 C-4.691 32.779 -4.719 35.173 -4.752 37.567 C-4.782 39.881 -4.8 42.194 -4.816 44.508 C-4.83 45.221 -4.843 45.935 -4.857 46.67 C-4.937 51.812 -4.937 51.812 -2.656 56.23 C-0.673 56.831 -0.673 56.831 1.625 56.727 C2.888 56.728 2.888 56.728 4.176 56.729 C5.496 56.699 5.496 56.699 6.844 56.668 C7.724 56.675 8.605 56.682 9.512 56.689 C12.952 56.689 12.952 56.689 16.344 56.23 C17.004 55.24 17.664 54.25 18.344 53.23 C19.004 53.23 19.664 53.23 20.344 53.23 C20.282 51.993 20.22 50.755 20.156 49.48 C20.18 46.794 20.353 45.206 21.344 42.668 C24.149 40.652 26.254 40.279 29.66 40.816 C31.344 42.23 31.344 42.23 31.934 45.77 C32.267 56.845 32.267 56.845 29.344 61.23 C28.684 61.23 28.024 61.23 27.344 61.23 C27.055 62.014 26.766 62.798 26.469 63.605 C25.344 66.23 25.344 66.23 23.676 67.38 C20.653 68.482 18.116 68.473 14.898 68.461 C13.657 68.459 12.416 68.457 11.137 68.455 C9.844 68.443 8.551 68.431 7.219 68.418 C5.918 68.417 4.617 68.417 3.277 68.416 C-6.376 68.371 -6.376 68.371 -8.656 67.23 C-8.656 66.57 -8.656 65.91 -8.656 65.23 C-9.316 65.23 -9.976 65.23 -10.656 65.23 C-14.224 62.02 -17.284 59.15 -17.91 54.24 C-17.912 53.542 -17.913 52.843 -17.915 52.124 C-17.921 51.326 -17.928 50.528 -17.934 49.706 C-17.928 48.424 -17.928 48.424 -17.922 47.117 C-17.924 46.229 -17.926 45.342 -17.928 44.427 C-17.929 42.55 -17.925 40.673 -17.917 38.796 C-17.906 35.939 -17.917 33.082 -17.93 30.225 C-17.928 28.397 -17.926 26.57 -17.922 24.742 C-17.926 23.894 -17.93 23.046 -17.934 22.172 C-17.895 17.152 -17.388 12.96 -15.656 8.23 C-12.559 5.23 -12.559 5.23 -9.656 5.23 C-9.326 4.24 -8.996 3.25 -8.656 2.23 C-5.241 -0.046 -4.009 -0.016 0 0 Z " fill="#ffffff" transform="translate(398.65625,210.76953125)" id="SvgjsPath1015" class=""></path>
<path d="M0 0 C1.168 -0.05 2.336 -0.099 3.539 -0.15 C9.361 -0.22 13.261 -0.217 17.578 3.973 C20.25 7.105 20.25 7.105 20.25 9.562 C20.91 9.562 21.57 9.562 22.25 9.562 C24.696 13.232 24.611 15.315 24.688 19.688 C24.747 21.579 24.747 21.579 24.809 23.508 C24.624 24.516 24.44 25.524 24.25 26.562 C21.499 27.795 19.486 27.574 16.5 27.426 C15.758 27.141 15.015 26.856 14.25 26.562 C13.5 24.418 13.5 24.418 13.25 21.75 C12.919 18.251 12.563 16.905 10.16 14.27 C6.466 12.102 3.951 12.029 -0.312 12.062 C-2.263 12.047 -2.263 12.047 -4.254 12.031 C-7.697 12.299 -7.697 12.299 -9.938 14.04 C-12.604 17.751 -12.307 20.985 -12.246 25.449 C-12.248 26.307 -12.249 27.164 -12.251 28.048 C-12.249 29.856 -12.237 31.664 -12.217 33.472 C-12.187 36.251 -12.196 39.028 -12.209 41.807 C-12.203 43.563 -12.194 45.318 -12.184 47.074 C-12.188 48.327 -12.188 48.327 -12.192 49.606 C-12.187 52.156 -12.187 52.156 -11.75 55.562 C-7.9 56.846 -4.259 56.708 -0.25 56.688 C0.522 56.691 1.294 56.695 2.09 56.699 C5.395 56.693 8.094 56.615 11.25 55.562 C11.25 54.903 11.25 54.243 11.25 53.562 C11.91 53.562 12.57 53.562 13.25 53.562 C13.686 51.315 13.686 51.315 13.812 48.625 C14.155 43.658 14.155 43.658 15.25 42.562 C17.062 42.43 17.062 42.43 19.25 42.438 C19.972 42.435 20.694 42.432 21.438 42.43 C23.25 42.562 23.25 42.562 24.25 43.562 C25.329 56.916 25.329 56.916 22.5 61.188 C21.758 61.971 21.015 62.755 20.25 63.562 C19.569 64.326 18.889 65.089 18.188 65.875 C13.304 70.129 5.974 68.827 -0.125 68.875 C-1.974 68.919 -1.974 68.919 -3.859 68.963 C-5.642 68.975 -5.642 68.975 -7.461 68.988 C-8.547 69.003 -9.633 69.017 -10.751 69.032 C-15.974 68.214 -18.708 64.816 -22.024 60.956 C-25.474 56.166 -25.547 52.018 -25.371 46.262 C-25.365 45.304 -25.359 44.345 -25.353 43.358 C-25.326 40.321 -25.257 37.286 -25.188 34.25 C-25.166 32.192 -25.147 30.134 -25.131 28.076 C-25.089 24.322 -25.043 20.569 -24.959 16.815 C-24.943 16.064 -24.927 15.313 -24.911 14.54 C-24.672 11.603 -24.092 9.907 -22.008 7.809 C-21.304 7.212 -20.6 6.615 -19.875 6 C-18.827 5.101 -18.827 5.101 -17.758 4.184 C-12.025 -0.445 -7.143 0.089 0 0 Z " fill="#ffffff" transform="translate(586.75,210.4375)" id="SvgjsPath1016" class=""></path>
<path d="M0 0 C1.427 -0.005 1.427 -0.005 2.882 -0.01 C3.907 -0.008 4.932 -0.006 5.988 -0.003 C7.042 -0.004 8.096 -0.005 9.182 -0.006 C11.412 -0.007 13.641 -0.005 15.87 -0.001 C19.287 0.004 22.704 -0.001 26.121 -0.007 C28.285 -0.007 30.449 -0.005 32.613 -0.003 C34.151 -0.006 34.151 -0.006 35.719 -0.01 C37.146 -0.005 37.146 -0.005 38.602 0 C39.439 0.001 40.276 0.002 41.138 0.002 C43.301 0.129 43.301 0.129 46.301 1.129 C49.136 7.851 48.526 15.319 46.301 22.129 C43.209 23.675 40.616 22.732 37.301 22.129 C36.301 21.129 36.301 21.129 36.203 18.844 C36.236 16.273 36.268 13.701 36.301 11.129 C32.769 10.916 29.655 10.923 26.301 12.129 C24.66 15.293 24.948 18.535 25.043 22.036 C25.038 23.031 25.033 24.026 25.028 25.051 C25.03 27.159 25.057 29.268 25.107 31.376 C25.176 34.619 25.148 37.851 25.109 41.094 C25.123 43.137 25.143 45.18 25.168 47.223 C25.153 48.687 25.153 48.687 25.138 50.181 C25.259 53.756 25.259 53.756 26.301 57.129 C29.122 58.362 31.143 58.174 34.301 58.129 C35.301 59.129 35.301 59.129 35.434 60.942 C35.431 61.664 35.428 62.386 35.426 63.129 C35.43 64.212 35.43 64.212 35.434 65.317 C35.301 67.129 35.301 67.129 34.301 68.129 C29.884 68.466 25.463 68.529 21.036 68.589 C19.545 68.616 18.055 68.657 16.566 68.712 C14.425 68.791 12.287 68.825 10.145 68.848 C8.857 68.878 7.57 68.909 6.244 68.94 C5.273 68.672 4.302 68.405 3.301 68.129 C2.309 64.702 1.663 62.405 3.301 59.129 C6.774 57.972 9.661 58.061 13.301 58.129 C13.209 51.596 13.101 45.064 12.983 38.531 C12.945 36.307 12.91 34.082 12.879 31.858 C12.833 28.668 12.775 25.479 12.715 22.29 C12.703 21.289 12.692 20.287 12.68 19.256 C12.66 18.335 12.64 17.414 12.62 16.466 C12.606 15.651 12.593 14.836 12.579 13.996 C12.487 13.38 12.395 12.764 12.301 12.129 C8.94 10.449 6.792 10.987 3.301 12.129 C2.711 14.432 2.673 16.582 2.59 18.954 C2.301 21.129 2.301 21.129 0.051 23.317 C-2.699 24.129 -2.699 24.129 -5.449 23.504 C-7.699 22.129 -7.699 22.129 -8.699 19.129 C-8.795 16.818 -8.829 14.505 -8.824 12.192 C-8.827 10.966 -8.829 9.74 -8.832 8.477 C-8.628 3.346 -8.628 3.346 -7.699 1.129 C-4.814 0.168 -2.997 0.003 0 0 Z " fill="#ffffff" transform="translate(262.69921875,211.87060546875)" id="SvgjsPath1017" class=""></path>
<path d="M0 0 C9.57 0 19.14 0 29 0 C29 3.3 29 6.6 29 10 C28.67 10.33 28.34 10.66 28 11 C27.175 10.979 26.35 10.959 25.5 10.938 C24.675 10.958 23.85 10.979 23 11 C22.67 11.66 22.34 12.32 22 13 C21.34 13 20.68 13 20 13 C20 29.83 20 46.66 20 64 C21.485 63.505 21.485 63.505 23 63 C24.401 63.032 25.8 63.123 27.195 63.254 C34.138 63.85 34.138 63.85 41 63 C42.638 60.306 42.401 58.608 42.176 55.5 C42 53 42 53 43.562 50.25 C46.824 48.577 48.809 48.833 52.292 49.788 C54 51 54 51 54.589 53.31 C54.637 56.437 54.431 59.45 54.125 62.562 C54.058 63.642 53.991 64.722 53.922 65.834 C53.509 71.496 53.509 71.496 53 74 C50.534 75.233 48.866 75.149 46.107 75.18 C45.089 75.193 44.072 75.205 43.023 75.217 C38.387 75.236 33.751 75.227 29.115 75.198 C26.661 75.191 24.208 75.204 21.755 75.237 C18.229 75.282 14.709 75.263 11.184 75.23 C10.079 75.257 8.975 75.284 7.838 75.311 C2.639 75.196 2.639 75.196 0 74 C-1.499 70.665 -1.818 67.571 -1 64 C1.322 63.597 3.658 63.268 6 63 C6.796 59.822 6.978 57.597 6.938 54.375 C6.953 53.473 6.968 52.571 6.984 51.642 C7.027 48.427 7.013 45.215 7 42 C7.006 39.951 7.017 37.901 7.028 35.852 C7.071 27.568 7.052 19.284 7 11 C5.546 11.031 5.546 11.031 4.062 11.062 C1 11 1 11 0 10 C0 6.7 0 3.4 0 0 Z " fill="#ffffff" transform="translate(182,302)" id="SvgjsPath1018" class=""></path>
<path d="M0 0 C2.161 -0.083 2.161 -0.083 5.481 0.132 C7.983 3.885 7.756 6.809 7.724 11.152 C7.726 11.969 7.728 12.785 7.73 13.626 C7.734 16.328 7.723 19.029 7.712 21.73 C7.711 23.604 7.71 25.478 7.711 27.353 C7.709 31.281 7.701 35.209 7.687 39.137 C7.67 44.181 7.666 49.224 7.667 54.267 C7.667 58.137 7.661 62.006 7.654 65.876 C7.651 67.736 7.649 69.596 7.648 71.456 C7.646 74.051 7.637 76.647 7.627 79.242 C7.627 80.016 7.628 80.789 7.628 81.586 C7.596 86.903 7.596 86.903 6.481 89.132 C3.873 89.336 1.373 89.412 -1.237 89.398 C-2.01 89.4 -2.783 89.402 -3.58 89.404 C-5.218 89.405 -6.855 89.401 -8.493 89.393 C-11.008 89.382 -13.523 89.393 -16.038 89.406 C-17.625 89.404 -19.213 89.402 -20.8 89.398 C-21.557 89.402 -22.314 89.406 -23.095 89.41 C-24.905 89.394 -26.714 89.273 -28.519 89.132 C-30.097 85.975 -29.666 82.585 -29.664 79.118 C-29.667 78.291 -29.671 77.463 -29.674 76.61 C-29.684 73.866 -29.685 71.122 -29.687 68.378 C-29.69 66.478 -29.693 64.577 -29.697 62.677 C-29.703 58.691 -29.704 54.706 -29.704 50.72 C-29.704 45.6 -29.717 40.479 -29.735 35.359 C-29.746 31.434 -29.748 27.509 -29.747 23.585 C-29.748 21.696 -29.753 19.807 -29.761 17.919 C-29.77 15.285 -29.768 12.651 -29.761 10.017 C-29.767 9.229 -29.773 8.441 -29.779 7.629 C-29.768 5.795 -29.654 3.961 -29.519 2.132 C-26.961 0.853 -24.997 0.922 -22.136 0.816 C-21.05 0.774 -19.965 0.732 -18.847 0.689 C-17.707 0.65 -16.568 0.61 -15.394 0.57 C-14.277 0.527 -13.161 0.483 -12.011 0.439 C-9.835 0.358 -7.659 0.285 -5.482 0.222 C-3.654 0.167 -1.826 0.096 0 0 Z M-23.519 8.132 C-23.907 17.912 -24.199 27.682 -24.319 37.469 C-24.379 42.013 -24.482 46.548 -24.681 51.089 C-24.871 55.468 -24.951 59.836 -24.953 64.219 C-24.973 65.894 -25.034 67.57 -25.136 69.243 C-25.182 70.053 -25.229 70.863 -25.277 71.697 C-25.329 72.409 -25.382 73.12 -25.436 73.853 C-25.258 77.102 -25.258 77.102 -22.519 83.132 C-14.929 83.132 -7.339 83.132 0.481 83.132 C0.481 58.382 0.481 33.632 0.481 8.132 C-7.439 8.132 -15.359 8.132 -23.519 8.132 Z " fill="#ffffff" transform="translate(75.5185546875,64.86767578125)" id="SvgjsPath1019" class=""></path>
<path d="M0 0 C2.522 -0.341 2.522 -0.341 5.664 -0.293 C6.786 -0.283 7.907 -0.274 9.062 -0.264 C10.238 -0.239 11.414 -0.213 12.625 -0.188 C14.4 -0.167 14.4 -0.167 16.211 -0.146 C19.141 -0.111 22.07 -0.062 25 0 C25.188 1.621 25.325 3.247 25.438 4.875 C25.519 5.78 25.6 6.685 25.684 7.617 C25.458 8.404 25.232 9.19 25 10 C23.864 10.229 22.728 10.459 21.557 10.695 C20.383 11.126 19.209 11.556 18 12 C16.711 15.243 16.732 18.545 16.648 22.004 C16.596 23.494 16.596 23.494 16.542 25.015 C16.485 27.117 16.447 29.219 16.428 31.322 C16.375 34.563 16.184 37.778 15.988 41.014 C15.532 49.288 15.532 49.288 18 57 C23.686 60.097 30.839 58.947 37 58 C36.99 57.252 36.981 56.504 36.971 55.734 C36.875 48.25 36.875 48.25 38 46 C39.812 45.77 39.812 45.77 42 45.812 C42.722 45.819 43.444 45.825 44.188 45.832 C46 46 46 46 47 47 C47.332 50.303 47.325 53.62 47.375 56.938 C47.431 58.336 47.431 58.336 47.488 59.764 C47.5 60.655 47.511 61.546 47.523 62.465 C47.553 63.696 47.553 63.696 47.583 64.953 C47 67 47 67 45.068 68.278 C40.798 69.283 36.764 69.194 32.395 69.082 C31.474 69.064 30.554 69.046 29.605 69.028 C27.666 68.987 25.727 68.94 23.788 68.888 C20.813 68.813 17.838 68.764 14.861 68.717 C12.977 68.674 11.092 68.629 9.207 68.582 C8.314 68.569 7.422 68.557 6.502 68.544 C5.677 68.517 4.853 68.491 4.003 68.464 C3.277 68.447 2.55 68.43 1.801 68.412 C0 68 0 68 -2 65 C-1.444 59.444 -1.444 59.444 0 58 C1.98 58 3.96 58 6 58 C5.67 42.16 5.34 26.32 5 10 C3.35 10.33 1.7 10.66 0 11 C-0.66 10.67 -1.32 10.34 -2 10 C-2.32 5.683 -2.44 3.66 0 0 Z " fill="#ffffff" transform="translate(159,211)" id="SvgjsPath1020" class=""></path>
<path d="M0 0 C1.252 0.005 2.503 0.01 3.793 0.016 C4.789 0.018 4.789 0.018 5.806 0.02 C7.936 0.026 10.065 0.038 12.195 0.051 C13.636 0.056 15.077 0.061 16.517 0.065 C20.056 0.076 23.594 0.093 27.133 0.114 C27.187 1.551 27.225 2.988 27.258 4.426 C27.281 5.227 27.304 6.027 27.328 6.852 C27.133 9.114 27.133 9.114 25.133 12.114 C23.813 12.114 22.493 12.114 21.133 12.114 C18.625 17.011 18.864 22.064 18.945 27.426 C18.952 28.321 18.958 29.216 18.965 30.138 C19.089 41.47 19.603 52.794 20.133 64.114 C23.598 63.619 23.598 63.619 27.133 63.114 C26.926 64.248 26.72 65.382 26.508 66.551 C26.384 67.727 26.26 68.902 26.133 70.114 C26.793 70.444 27.453 70.774 28.133 71.114 C27.473 72.104 26.813 73.094 26.133 74.114 C23.259 74.47 23.259 74.47 19.629 74.442 C18.331 74.436 17.034 74.431 15.697 74.426 C15.02 74.416 14.344 74.405 13.646 74.395 C11.575 74.364 9.503 74.354 7.431 74.348 C-2.714 74.267 -2.714 74.267 -3.867 73.114 C-4.238 67.272 -4.238 67.272 -3.867 65.114 C-0.867 63.114 -0.867 63.114 1.775 63.274 C2.553 63.221 3.331 63.168 4.133 63.114 C4.94 61.134 4.94 61.134 4.855 58.54 C4.888 57.542 4.921 56.544 4.954 55.516 C4.963 54.425 4.971 53.335 4.98 52.211 C5.005 51.104 5.029 49.996 5.055 48.855 C5.101 46.506 5.134 44.156 5.157 41.806 C5.195 38.194 5.281 34.586 5.373 30.975 C5.411 28.7 5.447 26.424 5.48 24.149 C5.507 23.06 5.534 21.972 5.562 20.85 C5.566 19.849 5.57 18.848 5.574 17.817 C5.586 16.931 5.597 16.045 5.609 15.132 C5.452 14.466 5.295 13.8 5.133 13.114 C3.139 12.399 3.139 12.399 1.133 12.114 C1.133 11.454 1.133 10.794 1.133 10.114 C0.308 10.072 -0.517 10.031 -1.367 9.989 C-2.192 9.7 -3.017 9.411 -3.867 9.114 C-4.416 6.416 -4.277 3.827 -3.867 1.114 C-2.867 0.114 -2.867 0.114 0 0 Z " fill="#ffffff" transform="translate(659.867431640625,301.886474609375)" id="SvgjsPath1021" class=""></path>
<path d="M0 0 C1.171 -0.029 2.342 -0.058 3.549 -0.088 C4.666 -0.096 5.783 -0.105 6.934 -0.113 C7.964 -0.128 8.995 -0.142 10.056 -0.157 C12.562 0.312 12.562 0.312 13.914 2.205 C14.66 4.631 14.643 6.086 14.125 8.562 C14.003 9.269 13.88 9.975 13.754 10.703 C13.361 11.234 12.968 11.765 12.562 12.312 C8.965 12.547 8.965 12.547 5.562 12.312 C5.635 13.215 5.707 14.117 5.781 15.047 C5.877 16.385 5.971 17.724 6.062 19.062 C6.115 19.79 6.167 20.517 6.22 21.266 C6.534 26.41 6.538 31.488 6.383 36.641 C6.337 38.538 6.337 38.538 6.291 40.474 C6.222 43.026 6.125 45.578 5.998 48.128 C5.877 52.761 5.877 52.761 6.562 57.312 C10.061 58.058 10.061 58.058 13.562 58.312 C14.259 61.685 13.952 64.91 13.562 68.312 C9.084 68.428 4.605 68.499 0.125 68.562 C-1.154 68.596 -2.434 68.63 -3.752 68.664 C-5.574 68.683 -5.574 68.683 -7.434 68.703 C-8.56 68.724 -9.685 68.745 -10.845 68.767 C-11.701 68.617 -12.556 68.467 -13.438 68.312 C-14.637 65.81 -14.438 63.925 -14.438 61.125 C-14.107 60.197 -13.778 59.269 -13.438 58.312 C-12.277 58.263 -11.116 58.214 -9.92 58.163 C-8.771 57.882 -7.622 57.602 -6.438 57.312 C-5.732 54.182 -5.594 52.04 -5.719 48.895 C-5.726 48.045 -5.734 47.195 -5.742 46.319 C-5.774 43.586 -5.856 40.857 -5.938 38.125 C-5.964 36.301 -5.988 34.478 -6.008 32.654 C-5.925 22.395 -5.925 22.395 -7.438 12.312 C-9.938 11.979 -9.938 11.979 -12.438 12.312 C-13.627 9.933 -13.571 8.398 -13.562 5.75 C-13.566 4.542 -13.566 4.542 -13.57 3.309 C-13.211 -2.088 -4.045 0.033 0 0 Z " fill="#fcfcfc" transform="translate(535.4375,210.6875)" id="SvgjsPath1022" class=""></path>
<path d="M0 0 C4.308 -0.828 8.684 -0.741 13.062 -0.812 C14.285 -0.883 15.508 -0.953 16.768 -1.025 C20.136 -1.08 22.811 -1.096 26 0 C27.561 2.633 27.785 4.612 28.017 7.646 C27.682 8.423 27.346 9.2 27 10 C25.193 10.402 25.193 10.402 23.012 10.676 C20.821 11.002 20.821 11.002 19 12 C17.71 15.342 17.931 18.713 18 22.258 C17.984 23.785 17.984 23.785 17.967 25.343 C17.941 28.605 17.97 31.863 18 35.125 C17.992 37.332 17.98 39.539 17.965 41.746 C17.935 47.165 17.95 52.582 18 58 C20.64 58 23.28 58 26 58 C26.054 59.458 26.093 60.916 26.125 62.375 C26.148 63.187 26.171 63.999 26.195 64.836 C26 67 26 67 24 69 C21.494 69.167 21.494 69.167 18.371 69.047 C17.254 69.004 16.137 68.962 14.986 68.918 C13.815 68.863 12.644 68.807 11.438 68.75 C10.263 68.71 9.088 68.67 7.877 68.629 C1.381 68.351 1.381 68.351 -1 68 C-2.37 65.261 -2.126 63.029 -2 60 C-1.67 59.34 -1.34 58.68 -1 58 C1.31 58 3.62 58 6 58 C6 42.82 6 27.64 6 12 C4.68 12 3.36 12 2 12 C2 11.34 2 10.68 2 10 C1.01 10.33 0.02 10.66 -1 11 C-2.25 3.375 -2.25 3.375 0 0 Z " fill="#ffffff" transform="translate(218,211)" id="SvgjsPath1023" class=""></path>
<path d="M0 0 C0 0.99 0 1.98 0 3 C0.66 3 1.32 3 2 3 C1.914 4.501 1.805 6.001 1.688 7.5 C1.629 8.335 1.571 9.171 1.512 10.031 C1.343 10.681 1.174 11.331 1 12 C0.01 12 -0.98 12 -2 12 C-2.749 12.16 -3.498 12.32 -4.27 12.484 C-7.444 13.084 -10.458 13.206 -13.688 13.25 C-14.826 13.276 -15.964 13.302 -17.137 13.328 C-18.082 13.22 -19.026 13.112 -20 13 C-22 10 -22 10 -22 6 C-19.551 4.586 -19.551 4.586 -16.312 3.375 C-14.729 2.768 -14.729 2.768 -13.113 2.148 C-12.086 1.769 -11.059 1.39 -10 1 C-9.103 0.617 -8.206 0.234 -7.281 -0.16 C-4.439 -1.206 -2.823 -1.049 0 0 Z " fill="#ffffff" transform="translate(358,195)" id="SvgjsPath1024" class=""></path>
<path d="M0 0 C0.33 0 0.66 0 1 0 C1 9.9 1 19.8 1 30 C0.67 30 0.34 30 0 30 C0 20.1 0 10.2 0 0 Z " fill="#11572f" transform="translate(559,100)" id="SvgjsPath1025"></path>
<path d="M0 0 C0.33 0 0.66 0 1 0 C1 3.3 1 6.6 1 10 C0.67 10 0.34 10 0 10 C0 6.7 0 3.4 0 0 Z " fill="#11572f" transform="translate(628,139)" class="" id="SvgjsPath1026"></path>
<path d="M0 0 C0.33 0 0.66 0 1 0 C1 3.3 1 6.6 1 10 C0.67 10 0.34 10 0 10 C0 6.7 0 3.4 0 0 Z " fill="#11572f" transform="translate(84,136)" class="" id="SvgjsPath1027"></path>
<path d="M0 0 C0.33 0 0.66 0 1 0 C1 2.97 1 5.94 1 9 C0.67 9 0.34 9 0 9 C0 6.03 0 3.06 0 0 Z " fill="#11572f" transform="translate(559,140)" id="SvgjsPath1028"></path>
<path d="M0 0 C0.33 0 0.66 0 1 0 C1 2.64 1 5.28 1 8 C0.67 8 0.34 8 0 8 C0 5.36 0 2.72 0 0 Z " fill="#11572f" transform="translate(87,233)" class="" id="SvgjsPath1029"></path>
<path d="M0 0 C2.31 0 4.62 0 7 0 C7 0.33 7 0.66 7 1 C4.69 1 2.38 1 0 1 C0 0.67 0 0.34 0 0 Z " fill="#11572f" transform="translate(659,377)" id="SvgjsPath1030"></path>
<path d="M0 0 C1.98 0 3.96 0 6 0 C6 0.33 6 0.66 6 1 C4.02 1 2.04 1 0 1 C0 0.67 0 0.34 0 0 Z " fill="#11572f" transform="translate(572,377)" id="SvgjsPath1031"></path>
<path d="M0 0 C0.33 0 0.66 0 1 0 C1 1.98 1 3.96 1 6 C0.67 6 0.34 6 0 6 C0 4.02 0 2.04 0 0 Z " fill="#11572f" transform="translate(595,99)" class="" id="SvgjsPath1032"></path>
<path d="M0 0 C1.65 0 3.3 0 5 0 C5 0.33 5 0.66 5 1 C3.35 1 1.7 1 0 1 C0 0.67 0 0.34 0 0 Z " fill="#11572f" transform="translate(319,45)" id="SvgjsPath1033"></path>
<path d="" fill="#11572f" transform="translate(0,0)" class="" id="SvgjsPath1034"></path>
<path d="" fill="#11572f" transform="translate(0,0)" id="SvgjsPath1035"></path>
<path d="" fill="#11572f" transform="translate(0,0)" class="" id="SvgjsPath1036"></path>
<path d="" fill="#11572f" transform="translate(0,0)" id="SvgjsPath1037"></path>
<path d="M0 0 C2 1 2 1 2 1 Z " fill="#11572f" transform="translate(99,77)" class="" id="SvgjsPath1038"></path>
<path d="" fill="#11572f" transform="translate(0,0)" class="" id="SvgjsPath1039"></path>
<path d="" fill="#11572f" transform="translate(0,0)" id="SvgjsPath1040"></path>
<path d="" fill="#11572f" transform="translate(0,0)" class="" id="SvgjsPath1041"></path>
<path d="" fill="#11572f" transform="translate(0,0)" id="SvgjsPath1042"></path>
<path d="" fill="#11572f" transform="translate(0,0)" class="" id="SvgjsPath1043"></path>
<path d="" fill="#11572f" transform="translate(0,0)" id="SvgjsPath1044"></path>
<path d="" fill="#11572f" transform="translate(0,0)" id="SvgjsPath1045"></path>
<path d="" fill="#11572f" transform="translate(0,0)" id="SvgjsPath1046"></path>
<path d="" fill="#11572f" transform="translate(0,0)" id="SvgjsPath1047"></path>
<path d="" fill="#11572f" transform="translate(0,0)" class="" id="SvgjsPath1048"></path>
<path d="" fill="#11572f" transform="translate(0,0)" class="" id="SvgjsPath1049"></path>
<path d="" fill="#11572f" transform="translate(0,0)" id="SvgjsPath1050"></path>
<path d="" fill="#11572f" transform="translate(0,0)" class="" id="SvgjsPath1051"></path>
<path d="" fill="#11572f" transform="translate(0,0)" id="SvgjsPath1052"></path>
<path d="" fill="#11572f" transform="translate(0,0)" class="" id="SvgjsPath1053"></path>
<path d="" fill="#11572f" transform="translate(0,0)" class="" id="SvgjsPath1054"></path>
<path d="" fill="#11572f" transform="translate(0,0)" id="SvgjsPath1055"></path>
<path d="" fill="#11572f" transform="translate(0,0)" id="SvgjsPath1056"></path>
<path d="" fill="#11572f" transform="translate(0,0)" id="SvgjsPath1057"></path>
<path d="" fill="#11572f" transform="translate(0,0)" class="" id="SvgjsPath1058"></path>
<path d="" fill="#11572f" transform="translate(0,0)" id="SvgjsPath1059"></path>
<path d="" fill="#11572f" transform="translate(0,0)" id="SvgjsPath1060"></path>
<path d="" fill="#11572f" transform="translate(0,0)" id="SvgjsPath1061"></path>
<path d="" fill="#11572f" transform="translate(0,0)" class="" id="SvgjsPath1062"></path>
<path d="" fill="#11572f" transform="translate(0,0)" class="" id="SvgjsPath1063"></path>
<path d="" fill="#11572f" transform="translate(0,0)" class="" id="SvgjsPath1064"></path>
<path d="" fill="#11572f" transform="translate(0,0)" id="SvgjsPath1065"></path>
<path d="" fill="#11572f" transform="translate(0,0)" id="SvgjsPath1066"></path>
</svg>