<svg id="Capa_2" data-name="Capa 2" xmlns="http://www.w3.org/2000/svg" viewBox="0 0 955.79 398.81"><defs><style>.cls-1,.cls-2{fill:#fff;}.cls-2{stroke:#fff;stroke-linecap:round;stroke-linejoin:round;stroke-width:0;}</style></defs><polygon class="cls-1" points="325.36 91.4 395.15 91.4 395.15 43.4 200.09 43.4 200.09 91.4 271.23 91.4 271.23 285.45 324.34 285.45 325.36 91.4"/><path class="cls-1" d="M654.47,278.3c32.49-17.14,50.72-52.86,45.44-88.6-5.55-37.57-35.95-67.42-74.29-72.51H502.81l.25,242h52.85V288.51l46.73.26,41.75,70.46H705ZM609,241.53H555.91v-77.1H609c19.33,2.1,34.22,17.76,35.3,36.23C645.5,220.73,630.1,239.16,609,241.53Z" transform="translate(-84.34 -73.79)"/><polygon class="cls-1" points="646.13 285.45 700.17 285.45 698.62 43.66 646.02 43.66 646.13 285.45"/><path class="cls-1" d="M913.23,185.74l-42.38-68.29H808.43l76,117.87L804.09,359.23H867.4a201,201,0,0,1,16.21-58.72,198.57,198.57,0,0,1,13.92-25.7,155.66,155.66,0,0,1,15.7-89.07Z" transform="translate(-84.34 -73.79)"/><path class="cls-1" d="M969.87,359.23h63.49L961.53,249.62a118.51,118.51,0,0,1-42,28.76Z" transform="translate(-84.34 -73.79)"/><path class="cls-1" d="M1040.13,73.79q-12.47,32.17-25.53,64.59l-4.34,10.73a120.51,120.51,0,0,1-10.35,9.44,119.33,119.33,0,0,1-18.12,12.13l24.64-9.57a120.71,120.71,0,0,1-23.62,46.08,115,115,0,0,1-10.6,11.11l-32.68,17.61,28.09-7.27A126.07,126.07,0,0,1,916,273.79l-17.19,33.7L900,324.77a73.57,73.57,0,0,1-28.34,26.89q6.17-13.38,12.34-26.77l2.43.51-.26-10.72,39.7-76.34q6.86-12.26,14-24.64c19.42-33.36,39.35-64.83,59.49-94.47a650.39,650.39,0,0,0-94.21,141.71,167,167,0,0,1,24.26-90.13c0,3.34.09,6.93.38,10.72A131.67,131.67,0,0,0,931.74,196c.73-5.7,1.65-11.67,2.81-17.87,1.51-8.05,3.25-15.59,5.11-22.6a210.66,210.66,0,0,1,100.47-81.7Z" transform="translate(-84.34 -73.79)"/><path class="cls-1" d="M667.74,27" transform="translate(-84.34 -73.79)"/><line class="cls-1" x1="-84.34" y1="-73.79" x2="-84.34" y2="-73.79"/><path class="cls-1" d="M151.23,200.68q6.15,2.9,12.77,5.62a267,267,0,0,0,58.21,16.34,63.27,63.27,0,0,1,47,34.72,84.48,84.48,0,0,1-3.57,69.7A75.64,75.64,0,0,1,211,361.79a230.34,230.34,0,0,1-61.28,0,108.58,108.58,0,0,1-65.36-30.9L104,289a145.66,145.66,0,0,0,54.64,26.3,86.56,86.56,0,0,0,38.3-1,84.06,84.06,0,0,0,16.34-6.13c1-.72,9.52-7,9.44-16.6a19.2,19.2,0,0,0-11-17.1,93,93,0,0,0-36-12.26,242.64,242.64,0,0,1-25.27-6.89,244.67,244.67,0,0,1-25.79-10.21A58.89,58.89,0,0,1,91,202.47a89.52,89.52,0,0,1,0-27.07,73.5,73.5,0,0,1,40.85-52.34,155.39,155.39,0,0,1,135.32,13l-16.34,42.63a93.87,93.87,0,0,0-16.09-9.95,98.38,98.38,0,0,0-34.38-9.37c-7.76-.8-18.64-1.83-32.17,1.54a81.46,81.46,0,0,0-15.91,5.78c-.72.47-9.2,6.16-9.45,16.85C142.56,194.09,150.5,200.14,151.23,200.68Z" transform="translate(-84.34 -73.79)"/><path class="cls-1" d="M1014,383.57H968.68v89h12.09V444.68H1014a31.5,31.5,0,0,0,0-61.11Zm-3.41,51.24H980.77v-41.7h29.78c8.28,2.68,14.35,9.59,15.49,17.7C1027.46,420.85,1021.09,431.13,1010.55,434.81Z" transform="translate(-84.34 -73.79)"/><path class="cls-1" d="M936,445c14.51-9.56,20.92-26.49,16.29-40.72s-18.4-19.89-20.55-20.73H886.3v89H897V445h27.24l17,27.58h12.59Zm-39.32-10.21v-41.7h31.66A22.64,22.64,0,0,1,942.87,411c1.28,9.82-4.62,19.76-14.53,23.82Z" transform="translate(-84.34 -73.79)"/><path class="cls-1" d="M862.3,422.38,820.6,422V393.11H870v-9.54H809.87v89H870V462.38l-49.87-.17V433.28l42-.17Z" transform="translate(-84.34 -73.79)"/><path class="cls-2" d="M788.06,403.72,751.68,384l-36.06,20.94v43.59l37,21.45,35.55-21.13Zm-36.12-13.85,27.51,15.64-10.34,6.38L742.3,395.74Zm-3.32,71.81L721,445.85v-34l27.58,14.81Zm3.32-40.21-26.75-15.64L736,399.51l26.3,15.38Zm30.7,24.44-27.9,15V425.49l10.35-4.72.38,12.89,8.42-3.57V416.62l8.75-5.62Z" transform="translate(-84.34 -73.79)"/><polygon class="cls-2" points="418.13 388.68 418.13 396.94 657.96 396.19 644.43 388.68 418.13 388.68"/></svg>